<svg width="100" height="100" viewBox="211 97 100 100" xmlns="http://www.w3.org/2000/svg" xmlns:xlink="http://www.w3.org/1999/xlink"><defs><ellipse id="a" cx="49.99" cy="49.94" rx="49.99" ry="49.94"/><mask id="b" x="0" y="0" width="99.981" height="99.88" fill="#fff"><use xlink:href="#a"/></mask><mask id="c" x="0" y="0" width="99.981" height="99.88" fill="#fff"><use xlink:href="#a"/></mask></defs><g fill="none" fill-rule="evenodd" transform="translate(211 97)"><mask id="d" fill="#fff"><use xlink:href="#a"/></mask><g stroke="#FFF" mask="url(#b)" stroke-width="7"><use mask="url(#c)" xlink:href="#a"/></g><path d="M79.709 22.887c-8.754-2.54-12.922-8.496-18.814-1.786-5.892 6.71-8.882 7.247-10.577 12.83-1.696 5.584-4.778 14.64 0 18.498 4.777 3.858 10.251 9.234 13.233 7.38 2.982-1.854 6.229-7.85 9.595-10.597 3.366-2.746 5.97 7.06 8.35 12.245 2.379 5.186.833 9.354-3.474 17.255-4.306 7.9 14.79 34.768 18.22 44.224 3.429 9.455 24.072 17.45 24.072 17.45l-.563-28.467s22.023-23.045 9.696-48.337c-12.328-25.291-40.984-38.155-49.738-40.695zm-71.625-6.63c4.706-1.35 26.67-5.536 30.056 0 3.387 5.536-8.987 21.855-15.506 23.785-6.518 1.93-8.813 7.945-9.689 11.385-.875 3.44 17.715 20.457 15.021 24.425-2.694 3.968-8.92 3.538-15.02-4.062s-31.47 2.41-30.333-3.759c1.136-6.17 11.43-39.81 11.43-39.81S3.378 17.607 8.084 16.257z" stroke="#FFF" stroke-width="2" stroke-linecap="round" mask="url(#d)"/></g></svg>