<svg width="38" height="65" viewBox="640 163 38 65" xmlns="http://www.w3.org/2000/svg"><g fill="none" fill-rule="evenodd"><path d="M650 222h-6v1.343c0 1.06.42 2.078 1.172 2.83L647 228l1.828-1.828a4.002 4.002 0 0 0 1.172-2.83V222zm-1 1v.343c0 .8-.312 1.555-.88 2.12l-1.12 1.123-1.12-1.122a2.974 2.974 0 0 1-.88-2.12V223h4zm25-1h-6v1.343c0 1.06.42 2.078 1.172 2.83L671 228l1.828-1.828a4.002 4.002 0 0 0 1.172-2.83V222zm-1 1v.343c0 .8-.312 1.555-.88 2.12l-1.12 1.123-1.12-1.122a2.974 2.974 0 0 1-.88-2.12V223h4z" fill="#1D7ED0"/><path d="M643 220v2c0 .55.45 1 1 1h6c.55 0 1-.45 1-1v-1h-1v1h-6v-2h-1zm24 1v1c0 .55.45 1 1 1h6c.55 0 1-.45 1-1v-2h-1v2h-6v-1h-1zm-11.408-32.71a.5.5 0 0 1 .12-.698c1.077-.76 5.47-1.02 6.626.04a.499.499 0 1 1-.676.736c-.727-.667-4.567-.53-5.374.04a.503.503 0 0 1-.696-.118z" fill="#F2B430"/><path d="M659 165.012l6.65 10.984.03.052.038.048a6.023 6.023 0 0 1 1.282 3.707v26.437l1 2.077v-28.514c0-1.57-.526-3.092-1.495-4.325l-6.718-11.096A.995.995 0 0 0 659 164a.993.993 0 0 0-.786.382L651.496 175a6.993 6.993 0 0 0-1.496 4.325v29.02l1-2.466v-26.555c0-1.338.456-2.655 1.283-3.707l.03-.04.028-.043 6.66-10.523" fill="#1D7ED0"/><path d="M659 179l2.984 10.146A24.99 24.99 0 0 1 663 196.2v19.357l1 .374V196.2c0-2.483-.356-4.954-1.057-7.336l-2.984-10.146a.978.978 0 0 0-.96-.718.98.98 0 0 0-.96.718l-2.983 10.146a26.024 26.024 0 0 0-1.057 7.336v19.628l1-.305V196.2c0-2.39.342-4.762 1.016-7.054l2.972-10.144L659 179" fill="#1D7ED0"/><path d="M671 178.4l2.16 3.24c.55.825.84 1.785.84 2.775v27.86l1 .624v-28.485a5.99 5.99 0 0 0-1.008-3.328l-2.576-3.865a.497.497 0 0 0-.416-.222.495.495 0 0 0-.416.222l-2.576 3.865a5.998 5.998 0 0 0-1.008 3.328v22.65l1 1.25v-23.9c0-.99.29-1.95.84-2.774l2.16-3.24m-24 0l2.16 3.24c.55.825.84 1.785.84 2.775v23.93l1-1.345v-22.585a5.99 5.99 0 0 0-1.008-3.328l-2.576-3.865A.497.497 0 0 0 647 177a.495.495 0 0 0-.416.222l-2.576 3.865a5.998 5.998 0 0 0-1.008 3.328V213l1-.67v-27.915c0-.99.29-1.95.84-2.774l2.16-3.24" fill="#F2B430"/><path d="M654 198.068v17.863l1-.408V191l-4.45 15.408a6.003 6.003 0 0 1-1.808 2.592l-6.265 3.77a5.001 5.001 0 0 0-1.75 3.133L640 220l12.428 1.657.036-1.004-11.297-1.506.55-3.103a4.002 4.002 0 0 1 1.345-2.46l6.195-3.727.066-.04.06-.05a7 7 0 0 0 2.11-3.022l.01-.03.01-.03L654 198.07m10-.002l2.488 8.618.01.03.01.03a7.005 7.005 0 0 0 2.11 3.022l.06.05.065.04 6.195 3.726a4.03 4.03 0 0 1 1.35 2.494l.545 3.07-11.362 1.513-.03 1.015L678 220l-.728-4.097a4.995 4.995 0 0 0-1.75-3.134L669.26 209a6.024 6.024 0 0 1-1.81-2.592L663 191v24.557l1 .238v-17.727M662 194h-6c0-1.1.9-2 2-2h2c1.1 0 2 .9 2 2" fill="#1D7ED0"/><path d="M655.5 215a3.51 3.51 0 0 0-3.5 3.5v4.5c0 .55.45 1 1 1h5c.55 0 1-.45 1-1v-4.5a3.51 3.51 0 0 0-3.5-3.5m0 1c1.378 0 2.5 1.122 2.5 2.5v4.5h-5v-4.5c0-1.378 1.122-2.5 2.5-2.5m7-1a3.51 3.51 0 0 0-3.5 3.5v4.5c0 .55.45 1 1 1h5c.55 0 1-.45 1-1v-4.5a3.51 3.51 0 0 0-3.5-3.5m0 1c1.378 0 2.5 1.122 2.5 2.5v4.5h-5v-4.5c0-1.378 1.122-2.5 2.5-2.5" fill="#F2B430"/><path d="M653.5 228a.501.501 0 0 1-.5-.5v-2c0-.275.225-.5.5-.5s.5.225.5.5v2c0 .275-.225.5-.5.5m2 0a.501.501 0 0 1-.5-.5v-2c0-.275.225-.5.5-.5s.5.225.5.5v2c0 .275-.225.5-.5.5m2 0a.501.501 0 0 1-.5-.5v-2c0-.275.225-.5.5-.5s.5.225.5.5v2c0 .275-.225.5-.5.5m3 0a.501.501 0 0 1-.5-.5v-2c0-.275.225-.5.5-.5s.5.225.5.5v2c0 .275-.225.5-.5.5m2 0a.501.501 0 0 1-.5-.5v-2c0-.275.225-.5.5-.5s.5.225.5.5v2c0 .275-.225.5-.5.5m2 0a.501.501 0 0 1-.5-.5v-2c0-.275.225-.5.5-.5s.5.225.5.5v2c0 .275-.225.5-.5.5" fill="#1D7ED0"/></g></svg>