<svg xmlns="http://www.w3.org/2000/svg"><defs><linearGradient id="a" x1="6.012%" x2="53.912%" y1="61.612%" y2="61.612%"><stop stop-color="#0F315F" offset="0%"/><stop stop-color="#061E31" offset="100%"/></linearGradient><linearGradient id="b" x1="12.684%" x2="120.253%" y1="50%" y2="100%"><stop stop-color="#12406D" offset="0%"/><stop stop-color="#143548" offset="100%"/></linearGradient><linearGradient id="c" x1="28.907%" x2="115.104%" y1="54.165%" y2="54.165%"><stop stop-color="#234B8B" offset="0%"/><stop stop-color="#0F3D51" offset="100%"/></linearGradient><linearGradient id="d" x1="0%" x2="178.556%" y1="53.734%" y2="53.734%"><stop stop-color="#3A55B0" offset="0%"/><stop stop-color="#185A6B" offset="100%"/></linearGradient></defs><g fill="none" fill-rule="evenodd" opacity=".6"><path fill="url(#a)" d="M0 770h1028V0H473.276C376.89 97.543 317.916 176.359 296.35 236.449c-38.825 108.19 10.836 117.384-9.733 251.645-14.747 96.263-184.705 107.572-241.222 158.918C15.37 674.292.238 715.287 0 770z" transform="translate(0 -3)"/><path fill="url(#b)" d="M365.324 771L1030 769.98V1L779.113 3.12c-84.288 44.298-147.32 93.605-189.094 147.921C511.147 253.589 529.187 344.562 511.147 386c-36.208 83.174-133.336 73.35-163.616 180.817C330.418 627.55 336.35 695.611 365.324 771z" transform="translate(0 -3)"/><path fill="url(#c)" d="M531.892 771c-16.511-42.695 19.515-86.4 108.078-131.114 85.622-43.229 123.464-92.224 71.86-209.98-34.12-77.859-33.678-133.969 11.254-203.272C785.33 130.627 886.302 72.75 1026 53v718H531.892z" transform="translate(0 -3)"/><path fill="url(#d)" d="M801.835 771H1028V124c-23.77 82.868-44.693 137.404-62.77 163.608-67.602 97.985-126.287 90.604-157.681 148.94-38.266 71.107 50.956 143.182 49.1 215.394-.807 31.391-19.078 71.077-54.814 119.058z" transform="translate(0 -3)"/></g></svg>