<svg xmlns="http://www.w3.org/2000/svg" viewBox="0 0 700.15 76.61"><defs><style>.logo-white-c{fill:#fff}</style></defs><title>Reverb Consulting</title><g id="Layer_2" data-name="Layer 2"><g id="Layer_1-2" data-name="Layer 1"><path d="M131.37 32.94a13 13 0 0 0-4.94-.86c-4.7 0-8.62 3.06-8.62 9.8v18.27h-12.94V20.48h11.21l1.49 9c1.57-6.74 6.9-11 14.43-9.64zm27.76 13.49L169.64 50c-2.43 7.68-9.56 11.06-17.25 11.06-11.92 0-19.6-7.61-19.6-20.39 0-12.94 7.53-21.17 19.92-21.17 11.6 0 17.25 8 17.25 17.8a21.85 21.85 0 0 1-.71 5.25h-24.08c.08 5.65 3.06 8.94 7.45 8.94 3.22.03 5.49-1.49 6.51-5.06zm-1.25-10a6.72 6.72 0 0 0 .16-1.8c0-3.21-2-6-5.65-6-4 0-6.66 3-7.06 7.84zM191.12 46l8.23-25.56h12.39l-14.58 39.71h-12.7l-14.59-39.67h13.49L191 46zm46.42.43L248 50c-2.43 7.68-9.57 11.06-17.25 11.06-11.92 0-19.6-7.61-19.6-20.39 0-12.94 7.53-21.17 19.91-21.17 11.6 0 17.25 8 17.25 17.8a21.81 21.81 0 0 1-.71 5.25h-24.02c.08 5.65 3.06 8.94 7.45 8.94 3.22.03 5.49-1.49 6.51-5.06zm-1.25-10a6.72 6.72 0 0 0 .16-1.8c0-3.21-2-6-5.65-6-4 0-6.66 3-7.06 7.84zm43.2-3.49a13 13 0 0 0-4.94-.86c-4.7 0-8.62 3.06-8.62 9.8v18.27H253V20.48h11.2l1.49 9c1.57-6.74 6.9-11 14.43-9.64zm17.01-5.64c1.57-4.7 6-7.76 11.6-7.76 10.11 0 16.07 8.31 16.07 20.23 0 13.17-6.82 21.33-16.94 21.33-5.41 0-9.8-2.82-11.45-7.61l-1.65 6.66h-10.56V8.76h12.93zm0 15.45c0 6.12 3.14 8.78 6.82 8.78 4.78 0 7.53-4 7.53-11.45 0-7.06-2.82-10.66-7.37-10.66-3.76 0-7 3.14-7 9.33zm60.06-23.22c9.88 0 16.15 5.41 16.94 13.49l-11.13 2.43c-.31-3.61-2-6.43-5.57-6.43-4.78 0-6.9 4.55-6.9 11.29 0 7.13 2.27 11.21 6.9 11.21 3.21 0 5.33-2.35 5.72-6.35l11.21 3.45c-1.49 7.76-8 12.47-16.86 12.47-12.07 0-19.87-7.84-19.87-20.78s7.8-20.78 19.56-20.78zm38.89 41.56c-11.92 0-20-7.53-20-20.78s8.08-20.78 20-20.78 19.92 7.47 19.92 20.78-8.08 20.78-19.92 20.78zm0-32.15c-4.94 0-7.13 4.08-7.13 11.37s2.19 11.29 7.13 11.29 7.06-4 7.06-11.29-2.19-11.37-7.06-11.37zm37.17-.86c2-5.49 6.74-8.55 12.7-8.55 7.13 0 12.39 4.39 12.39 12.86v27.76h-12.94v-23.6c0-3.92-1.41-6.27-5.17-6.27-3.61 0-6.66 2.35-6.66 8.39v21.48H420V20.48h11.06zm39.28 19.76c.55 2.9 3.21 4.86 6.51 4.86s5.41-1.25 5.41-3.76c0-6.9-21.4-.71-21.4-16.07 0-8.7 7.53-13.33 16.78-13.33 9.41 0 15.29 4.16 16.47 11.53l-10.74 1.25c-.31-2.74-2.27-4.55-5.65-4.55-3 0-4.78 1.41-4.78 3.76 0 7 21.56.47 21.56 16.31 0 8.62-7.37 13.25-17.72 13.25-8.62 0-15.52-3.53-17.25-10.82zm52.85 5.09c-1.72 5.33-6 8.15-12.07 8.15-6.74 0-12.47-4.23-12.47-12.86V20.48h12.94v24.14c0 3.92 1.73 6.19 5.1 6.19 3.61 0 6.27-2.59 6.27-8.55V20.48h12.94v39.67h-11.14zM562.93 59a16.72 16.72 0 0 1-8.39 2c-5.57 0-10.9-2.67-10.9-10.66V8.76h12.94v38.69c0 2.35.94 3.37 2.74 3.37a4.89 4.89 0 0 0 3-1zm29.48-1.2a18.09 18.09 0 0 1-10.82 3.29c-8.39 0-14.19-4.08-14.19-13.41V30h-5.1v-9.52h5.17v-8.39l12.94-1.57v10h10.27V30h-10.34v16c0 3.29 1.65 4.78 4.47 4.78a10 10 0 0 0 6-2zm10.28-41.56c-3.92 0-7.53-2.51-7.53-6.9s3.61-7 7.53-7 7.53 2.51 7.53 7-3.61 6.9-7.53 6.9zm6.43 4.23v39.68h-12.94V20.48zm19.6 7.61c2-5.49 6.74-8.55 12.7-8.55 7.13 0 12.39 4.39 12.39 12.86v27.76h-12.94v-23.6c0-3.92-1.41-6.27-5.17-6.27-3.61 0-6.66 2.35-6.66 8.39v21.48h-12.95V20.48h11.06zm46.89 48.53c-9.33 0-19.21-2.43-19.21-9.88 0-4.15 3.53-6.82 8.55-7.53a7.38 7.38 0 0 1-5.65-7.37c0-4 3.14-6.9 7.21-7.84-4.63-2.12-7.53-5.8-7.53-11.06 0-8.7 7.21-13.41 18-13.41a24.21 24.21 0 0 1 10.82 2.35c1.25-1.41 1.88-4 2.12-6.43l10.27 3.37c-.55 4.08-3.92 6.59-7.29 7.37a11.49 11.49 0 0 1 2.1 6.76c0 8.86-7.84 13.09-18 13.09a26.52 26.52 0 0 1-5.65-.55 2.73 2.73 0 0 0-1.94 2.52c0 1.41 1.18 2 2.74 2h10.51c11 0 16.31 4.16 16.31 11.92.03 10.77-11.76 14.69-23.36 14.69zm.47-7.68c7.06 0 11.6-1.49 11.6-4.7 0-2.12-1.88-3.14-5.1-3.14h-11.21c-2.74 0-4.55 1.25-4.55 3.45 0 2.98 3.53 4.39 9.26 4.39zm.86-30.19c3.29 0 5.25-2.12 5.25-5.88s-2-5.88-5.25-5.88c-3.45 0-5.33 2.12-5.33 5.88 0 3.61 1.88 5.88 5.33 5.88zM0 50v8.57a17.87 17.87 0 0 1 17.85 17.86h8.57A26.44 26.44 0 0 0 0 50z" class="logo-white-c"/><path d="M0 33.34v8.34a34.77 34.77 0 0 1 34.73 34.73h8.34A43.11 43.11 0 0 0 0 33.34z" class="logo-white-c"/><path d="M0 16.67V25a51.46 51.46 0 0 1 51.4 51.4h8.34A59.8 59.8 0 0 0 0 16.67z" class="logo-white-c"/><path d="M0 0v8.34a68.15 68.15 0 0 1 68.07 68.07h8.34A76.49 76.49 0 0 0 0 0zm0 66.91v9.52h9.52A9.52 9.52 0 0 0 0 66.91z" class="logo-white-c"/><path d="M53 0H35.74a82.46 82.46 0 0 1 40.67 39V22.84A91 91 0 0 0 53 0zm13.71 0a99.47 99.47 0 0 1 9.69 9.48V0z" class="logo-white-c"/></g></g></svg>