<svg xmlns="http://www.w3.org/2000/svg" width="1052" height="281">
  <defs>
    <linearGradient id="a" x1="50%" x2="50%" y1="140.4339%" y2="0%">
      <stop stop-color="#041322" offset="0%"/>
      <stop stop-color="#293A72" offset="100%"/>
    </linearGradient>
    <linearGradient id="b" x1="50%" x2="50%" y1="140.4339%" y2="0%">
      <stop stop-color="#46301B" offset="0%"/>
      <stop stop-color="#A08A5A" offset="100%"/>
    </linearGradient>
    <linearGradient id="c" x1="50%" x2="50%" y1="130.0307%" y2="6.108%">
      <stop stop-color="#61452A" offset="0%"/>
      <stop stop-color="#B4B281" offset="100%"/>
    </linearGradient>
    <linearGradient id="d" x1="49.2225%" x2="50%" y1="156.6261%" y2="0%">
      <stop stop-color="#041322" offset="0%"/>
      <stop stop-color="#416D9C" offset="100%"/>
    </linearGradient>
    <linearGradient id="e" x1="1.0327%" y1="100%" y2="100%">
      <stop stop-color="#041322" offset="0%"/>
      <stop stop-color="#3D4590" offset="44.6927%"/>
      <stop stop-color="#041322" offset="100%"/>
    </linearGradient>
  </defs>
  <g fill="none" fill-rule="evenodd">
    <path fill="url(#a)" d="M.5 144.5h141.423c31.1344-22.8174 51.4814-39.3306 61.041-49.5396 24.922-26.615 31.8133-44.5397 54.343-44.5397 25.9907 0 26.9752 9.1197 64.162 44.5397 9.0634 8.633 33.6082 25.146 73.6345 49.5396h132.724c40.598-27.5765 72.3797-41.3647 95.3447-41.3647 22.965 0 59.779 13.7882 110.442 41.3647h309.8935"/>
    <path fill="url(#b)" d="M1 230.0856h215.4507c15.9825.6633 24.5442.6633 25.685 0 70.9142-41.2325 83.1424-81.815 119.5658-85.4547 36.4235-3.6398 52.8038 44.4954 133.6146 85.4546 2.5022 1.2682 632.6547 0 548.6917 0" opacity=".7" transform="matrix(1 0 0 -1 0 375.086)"/>
    <path fill="url(#c)" d="M1 278.8116h390.2275c24.587 1.6504 38.223 1.6504 40.908 0 105.8267-65.0472 107.9197-135.652 178.8004-135.0455 70.8807.6065 77.9215 69.6844 184.38 135.0456 3.5208 2.1616 24.1452 0 35.5784 0h213.1133" opacity=".7" transform="matrix(1 0 0 -1 0 423.812)"/>
    <path fill="url(#d)" d="M.5 144.5h272.6914c11.373.8403 17.617.8403 18.7316 0C401.3516 73.0248 423.7936.4207 464.307.4207c40.5133 0 63.2242 73.3957 190.7965 144.0793 2.251 1.519 20.6078 1.4914 22.724 0 53.1164-37.4348 50.4975-77.8524 87.7413-77.8524 37.2438 0 33.7076 39.8638 91.0456 76.1097 2.0543 1.2986 11.9853 1.3912 29.7932.2778l157.1 1.465" opacity=".9"/>
    <g stroke="url(#e)" transform="translate(0 140)" stroke-linecap="square">
      <path d="M.5 4.5h1043.0077"/>
      <path fill="#636BA4" d="M.5 4.5h289.787c7.9055-1.5924 16.485-2.3887 25.7384-2.3887 9.2535 0 17.8387.7963 25.756 2.3887H582.553c9.27 2.2822 18.2985 3.4233 27.0858 3.4233 8.7872 0 17.334-1.141 25.6404-3.4233h111.22c23.9257-2.6667 47.114-4 69.5652-4 22.4512 0 49.133 1.3333 80.0454 4h147.3977"/>
      <path fill="#8BA5C5" d="M.5 4.5h365.6797c17.263 1.6667 29.8515 2.5 37.7656 2.5 7.914 0 21.392-.8333 40.4336-2.5h92.2415c24.8774-1.8104 40.1258-2.7156 45.7452-2.7156 5.6194 0 15.974.9052 31.064 2.7156h430.078"/>
    </g>
  </g>
</svg>
