<svg width="60" height="60" viewBox="0 0 60 60" xmlns="http://www.w3.org/2000/svg"><title>1483945395_linked_in_online_social_media</title><g fill="none" fill-rule="evenodd"><path d="M30 0C13.43 0 0 13.43 0 30c0 16.568 13.43 30 30 30s30-13.432 30-30C60 13.43 46.57 0 30 0z" fill="#F0AA37"/><path d="M45.551 43.016V31.51c0-6.165-3.29-9.033-7.68-9.033-3.542 0-5.128 1.948-6.011 3.315v-2.845h-6.671c.088 1.885 0 20.07 0 20.07h6.671V31.808c0-.599.043-1.199.22-1.626.481-1.198 1.578-2.44 3.421-2.44 2.415 0 3.38 1.84 3.38 4.538v10.738l6.67-.002zM18.16 20.206c2.325 0 3.775-1.542 3.775-3.468-.043-1.969-1.45-3.467-3.732-3.467-2.281 0-3.772 1.498-3.772 3.467 0 1.928 1.447 3.469 3.688 3.469h.041zm3.336 22.81v-20.07h-6.67v20.07h6.67z" fill="#FFF"/></g></svg>