<svg width="100px" height="100px" viewBox="211 97 100 100" version="1.1" xmlns="http://www.w3.org/2000/svg" xmlns:xlink="http://www.w3.org/1999/xlink">
    <!-- Generator: Sketch 3.7.1 (28215) - http://www.bohemiancoding.com/sketch -->
    <desc>Created with Sketch.</desc>
    <defs>
        <ellipse id="path-1" cx="49.9903607" cy="49.9399369" rx="49.9903607" ry="49.9399369"></ellipse>
        <mask id="mask-2" maskContentUnits="userSpaceOnUse" maskUnits="objectBoundingBox" x="0" y="0" width="99.9807215" height="99.8798738" fill="white">
            <use xlink:href="#path-1"></use>
        </mask>
        <mask id="mask-4" maskContentUnits="userSpaceOnUse" maskUnits="objectBoundingBox" x="0" y="0" width="99.9807215" height="99.8798738" fill="white">
            <use xlink:href="#path-1"></use>
        </mask>
    </defs>
    <g id="earth" stroke="none" stroke-width="1" fill="none" fill-rule="evenodd" transform="translate(211.000000, 97.000000)">
        <mask id="mask-3" fill="white">
            <use xlink:href="#path-1"></use>
        </mask>
        <g id="base" stroke="#FFFFFF" mask="url(#mask-2)" stroke-width="7">
            <use mask="url(#mask-4)" xlink:href="#path-1"></use>
        </g>
        <path d="M79.7087528,22.8865978 C70.9546707,20.3465605 66.7871705,14.3910146 60.8952403,21.1011777 C55.0033101,27.8113409 52.0132797,28.3475739 50.3175987,33.9313592 C48.6219177,39.5151445 45.5399688,48.5714605 50.3175987,52.4294651 C55.0952285,56.2874697 60.5694037,61.6630602 63.5512833,59.8088955 C66.533163,57.9547308 69.7798533,51.9587772 73.1456857,49.2122042 C76.5115182,46.4656311 79.1157327,56.2712008 81.4952112,61.4571519 C83.8746897,66.6431031 82.3285829,70.8113375 78.0222175,78.7116379 C73.7158522,86.6119383 92.811985,113.480125 96.2415133,122.935641 C99.6710416,132.391156 120.314478,140.385204 120.314478,140.385204 L119.750774,111.919075 C119.750774,111.919075 141.774422,88.8743608 129.446628,63.582434 C117.118834,38.2905071 88.4628348,25.4266351 79.7087528,22.8865978 Z M8.08407353,16.2569979 C12.7900054,14.9067327 34.7538304,10.7210689 38.1403829,16.2569979 C41.5269354,21.7929268 29.1531612,38.1118165 22.6343376,40.0420207 C16.115514,41.9722248 13.8210346,47.9868706 12.9453489,51.4266422 C12.0696633,54.8664139 30.6603104,71.88379 27.9662563,75.8517643 C25.2722021,79.8197385 19.0455147,79.3898239 12.9453489,71.7901819 C6.84518316,64.1905399 -18.5236649,74.2004996 -17.3870898,68.0311226 C-16.2505146,61.8617456 -5.95664548,28.2207589 -5.95664548,28.2207589 C-5.95664548,28.2207589 3.37814162,17.6072631 8.08407353,16.2569979 Z" id="details" stroke="#FFFFFF" stroke-width="2" stroke-linecap="round" mask="url(#mask-3)"></path>
    </g>
</svg>
