<svg xmlns="http://www.w3.org/2000/svg">
  <defs>
    <linearGradient id="a" x1="6.0117%" x2="53.9117%" y1="61.6123%" y2="61.6123%">
      <stop stop-color="#0F315F" offset="0%"/>
      <stop stop-color="#061E31" offset="100%"/>
    </linearGradient>
    <linearGradient id="b" x1="12.6841%" x2="120.2533%" y1="50%" y2="100%">
      <stop stop-color="#12406D" offset="0%"/>
      <stop stop-color="#143548" offset="100%"/>
    </linearGradient>
    <linearGradient id="c" x1="28.9068%" x2="115.1038%" y1="54.1647%" y2="54.1647%">
      <stop stop-color="#234B8B" offset="0%"/>
      <stop stop-color="#0F3D51" offset="100%"/>
    </linearGradient>
    <linearGradient id="d" x1="0%" x2="178.5564%" y1="53.7345%" y2="53.7345%">
      <stop stop-color="#3A55B0" offset="0%"/>
      <stop stop-color="#185A6B" offset="100%"/>
    </linearGradient>
  </defs>
  <g fill="none" fill-rule="evenodd" opacity=".6">
    <path fill="url(#a)" d="M0 770h1028V0H473.2757c-96.3853 97.5425-155.36 176.3588-176.9242 236.449-38.8253 108.1896 10.8353 117.3838-9.7333 251.6447-14.7473 96.263-184.7055 107.5725-241.2225 158.9185C15.3695 674.2912.2377 715.2872 0 770z" transform="translate(0 -3)"/>
    <path fill="url(#b)" d="M365.3242 771L1030 769.9792V1L779.1126 3.1204C694.8252 47.418 631.7938 96.725 590.0186 151.041 511.1475 253.589 529.1868 344.562 511.1475 386c-36.2082 83.1736-133.336 73.3503-163.6166 180.817C330.4185 627.55 336.3496 695.611 365.3242 771z" transform="translate(0 -3)"/>
    <path fill="url(#c)" d="M531.8917 771c-16.511-42.6952 19.5154-86.3998 108.0788-131.114 85.6214-43.2287 123.4636-92.2238 71.8588-209.9804-34.12-77.8585-33.6775-133.9683 11.2548-203.2712C785.33 130.6274 886.302 72.7494 1026 53v718H531.8917z" transform="translate(0 -3)"/>
    <path fill="url(#d)" d="M801.8353 771H1028V124c-23.7692 82.8685-44.6928 137.4044-62.7708 163.6078-67.6013 97.9857-126.286 90.604-157.6802 148.941-38.266 71.1066 50.9558 143.1808 49.0997 215.3928-.8068 31.3917-19.078 71.0778-54.8134 119.0584z" transform="translate(0 -3)"/>
  </g>
</svg>
