<svg xmlns="http://www.w3.org/2000/svg" viewBox="0 0 365.5 133.6">
  <path fill="#E48232" d="M113.2 32.7h3.8v23.9h-3.8z"/>
  <path fill="#E48731" d="M101.9 21.9h3.8v45.5h-3.8z"/>
  <path fill="#E37F32" d="M124.6 39.1h3.8v11.1h-3.8z"/>
  <path fill="#E0702F" d="M158.5 34.4h3.8v20.5h-3.8z"/>
  <path fill="#E68D31" d="M90.5 8.4h3.8v72.4h-3.8z"/>
  <path fill="#E17430" d="M135.9 32.7h3.8v23.9h-3.8z"/>
  <path fill="#E17530" d="M147.2 21.9h3.8v45.5h-3.8z"/>
  <path fill="#E89232" d="M79.3 18.8h3.8v51.7h-3.8z"/>
  <path fill="#EBA734" d="M22.6 41.9h3.8v5.6h-3.8zM11.3 41.9h3.8v5.6h-3.8zM34 39.1h3.8v11.1H34z"/>
  <path fill="#DF6C2F" d="M169.9 39.1h3.8v11.1h-3.8z"/>
  <path fill="#F0AA37" d="M0 42.7h3.8v3.8H0z"/>
  <path fill="#EBA333" d="M45.3 32.7h3.8v23.9h-3.8z"/>
  <path fill="#E99933" d="M67.9 28.8h3.8v31.6h-3.8z"/>
  <path fill="#EA9F33" d="M56.6 26h3.8v37.2h-3.8z"/>
  <path fill="#DB4730" d="M249.2 26h3.8v37.2h-3.8z"/>
  <path fill="#DC412D" d="M283.1 13.5h3.8v62.4h-3.8z"/>
  <path fill="#D23C2C" d="M305.8 28.8h3.8v31.6h-3.8z"/>
  <path fill="#CC382B" d="M328.4 40.2h3.8v9h-3.8z"/>
  <path fill="#D33D2C" d="M294.5 21.9h3.8v45.5h-3.8z"/>
  <path fill="#CE392B" d="M317.1 36.1h3.8v17.1h-3.8z"/>
  <path fill="#C9372A" d="M339.8 41.9h3.8v5.6h-3.8z"/>
  <path fill="#B91419" d="M361.7 43.2h3.8v3h-3.8z"/>
  <path fill="#DF662F" d="M181.2 26h3.8v37.2h-3.8z"/>
  <path fill="#C6352A" d="M351.1 43.2h3.8v3h-3.8z"/>
  <path fill="#DD5B31" d="M203.8 0h3.8v89.3h-3.8z"/>
  <path fill="#DD6130" d="M192.6 15.8h3.6v62h-3.6z"/>
  <path fill="#DC5632" d="M215.2 13.5h3.8v62.4h-3.8z"/>
  <path fill="#DB5230" d="M226.5 24.4h3.8V65h-3.8z"/>
  <path fill="#D94430" d="M260.5 32.7h3.8v23.9h-3.8z"/>
  <path fill="#DB4B31" d="M237.8 32.7h3.8v23.9h-3.8z"/>
  <path fill="#D94130" d="M271.8 27.6h3.8v34h-3.8z"/>
  <g fill="#fff">
    <path d="M7.3 112.2h7.8c4.3 0 6.6 2.1 6.6 5.7 0 3.3-2.1 5.6-5.7 6l6.1 9.4H21l-6.1-9.3H8.3v9.3h-1v-21.1zm1 .9v10h6.8c3.6 0 5.5-2.1 5.5-5.1 0-3-1.9-4.8-5.5-4.8H8.3zM29.8 112.2h13.5v.9H30.8v8.9H41v.9H30.8v9.5h12.8v.9H29.8v-21.1zM49 112.2h1.1l7.5 20h.1l7.6-20h1l-8.1 21.1h-1.1L49 112.2zM72.7 112.2h13.5v.9H73.7v8.9h10.2v.9H73.7v9.5h12.8v.9H72.7v-21.1zM94 112.2h7.8c4.3 0 6.6 2.1 6.6 5.7 0 3.3-2.1 5.6-5.7 6l6.1 9.4h-1.1l-6.1-9.3H95v9.3h-1v-21.1zm1 .9v10h6.8c3.6 0 5.5-2.1 5.5-5.1 0-3-1.9-4.8-5.5-4.8H95zM116.4 112.2h8c4.3 0 6.2 1.9 6.2 5 0 2.4-1.5 4.3-4.1 4.9 3.2.4 4.8 2.5 4.8 5.2 0 3.5-2.2 6-6.5 6h-8.4v-21.1zm1 .9v8.6h7.2c3.2 0 4.9-2 4.9-4.5s-1.4-4.1-5.1-4.1h-7zm0 9.5v9.8h7.4c3.7 0 5.5-2.1 5.5-5.1 0-2.7-1.8-4.7-5.5-4.7h-7.4zM157.6 111.9c4.6 0 7.7 2.6 8.7 6.6h-1c-1-3.4-3.6-5.6-7.7-5.6-5.3 0-8.7 4.5-8.7 9.9s3.4 9.9 8.6 9.9c4.1 0 6.6-2.2 7.7-5.6h1c-1.1 3.9-4.1 6.6-8.7 6.6-5.9 0-9.7-4.9-9.7-10.8 0-6.1 3.8-11 9.8-11zM182.3 111.9c5.7 0 9.8 4.6 9.8 10.8 0 6.2-4.1 10.8-9.8 10.8-5.8 0-9.7-4.7-9.7-10.8-.1-6.1 3.9-10.8 9.7-10.8zm0 20.7c5.1 0 8.8-4.3 8.8-9.9 0-5.6-3.7-9.9-8.8-9.9-5.1 0-8.7 4.3-8.7 9.9 0 5.7 3.5 9.9 8.7 9.9zM199.7 112.2h.9l13.5 19.4h.1v-19.4h1v21.1h-1L200.7 114h-.1v19.3h-1v-21.1zM224.2 127.6c0 3.4 2.7 5.1 6.6 5.1 4 0 6.4-2 6.4-5 0-7.5-13.7-2.1-13.7-10.2 0-3.2 2.9-5.5 7.1-5.5 4.1 0 7.1 1.9 7.1 5.5h-1c0-3.1-2.6-4.6-6.1-4.6-3.6 0-6.1 1.9-6.1 4.6 0 7.2 13.7 1.7 13.7 10.2 0 3.6-2.7 5.9-7.4 5.9-4.6 0-7.5-2-7.5-5.9h.9zM245.8 112.2h1V125c0 5.1 2.6 7.6 6.8 7.6 4.1 0 6.7-2.5 6.7-7.6v-12.8h1V125c0 5.9-3.2 8.5-7.8 8.5s-7.8-2.6-7.8-8.5v-12.8zM269.9 112.2h1v20.2h11.6v.9h-12.6v-21.1zM283 112.2h16.8v.9h-7.9v20.2h-1v-20.2H283v-.9zM306 112.2h1v21.1h-1v-21.1zM316 112.2h1l13.5 19.4h.1v-19.4h1v21.1h-1L317 113.9v19.3h-1v-21zM357 128.7c-1.3 3.4-4.4 4.9-8.1 4.9-5.8 0-9.7-4.9-9.7-10.8 0-6.2 4.1-10.8 10-10.8 4.8 0 7.8 2.8 8.6 6.4h-1c-.7-2.9-3.2-5.5-7.5-5.5-5.3 0-8.9 4.2-8.9 9.9 0 5.4 3.5 9.9 8.7 9.9 4 0 8-2.3 8-7.3v-2H349v-.9h8.8v10.8h-.7l-.1-4.6z"/>
  </g>
</svg>
