<svg width="1030" height="933" xmlns="http://www.w3.org/2000/svg">
  <defs>
    <linearGradient x1="6.012%" y1="61.612%" x2="53.912%" y2="61.612%" id="a">
      <stop stop-color="#0F315F" offset="0%"/>
      <stop stop-color="#061E31" offset="100%"/>
    </linearGradient>
    <linearGradient x1="12.684%" y1="50%" x2="120.253%" y2="100%" id="b">
      <stop stop-color="#12406D" offset="0%"/>
      <stop stop-color="#143548" offset="100%"/>
    </linearGradient>
    <linearGradient x1="28.907%" y1="54.165%" x2="115.104%" y2="54.165%" id="c">
      <stop stop-color="#234B8B" offset="0%"/>
      <stop stop-color="#0F3D51" offset="100%"/>
    </linearGradient>
    <linearGradient x1="0%" y1="53.735%" x2="178.556%" y2="53.735%" id="d">
      <stop stop-color="#3A55B0" offset="0%"/>
      <stop stop-color="#185A6B" offset="100%"/>
    </linearGradient>
  </defs>
  <g fill="none" fill-rule="evenodd" opacity=".6">
    <path d="M0 932h1028V162l2-161.766C717.264-2.54 481.465 116.698 322.603 357.948c-64.861 98.5-15.416 157.885-35.985 292.146-14.747 96.263-184.705 107.572-241.222 158.918C15.369 836.292.238 877.287 0 932z" fill="url(#a)"/>
    <path d="M365.324 933L1030 931.98V103.296c-198.567-18.875-338.232 35.53-418.994 163.213-70.517 111.486-81.82 240.052-99.858 281.49-36.209 83.174-133.336 73.35-163.617 180.817C330.419 789.55 336.35 857.611 365.324 933z" fill="url(#b)"/>
    <path d="M531.892 933c-16.511-42.695 19.515-86.4 108.079-131.114 85.62-43.229 123.463-92.224 71.858-209.98-34.12-77.859-33.677-133.969 11.255-203.272C785.33 292.628 886.302 234.75 1026 215v718H531.892z" fill="url(#c)"/>
    <path d="M801.835 933H1028V286c-23.77 82.868-44.693 137.404-62.77 163.608-67.602 97.986-126.287 90.604-157.681 148.94-38.266 71.107 50.956 143.182 49.1 215.394-.807 31.391-19.078 71.077-54.814 119.058z" fill="url(#d)"/>
  </g>
</svg>
