<svg width="60" height="60" viewBox="0 0 60 60" xmlns="http://www.w3.org/2000/svg"><title>1483945366_instagram_online_social_media_photo</title><g fill="none" fill-rule="evenodd"><path d="M30 0C13.43 0 0 13.43 0 30c0 16.568 13.43 30 30 30s30-13.432 30-30C60 13.43 46.57 0 30 0z" fill="#F0AA37"/><path d="M41.357 14.869H18.643c-2.137 0-3.786 1.648-3.786 3.785v22.712c0 2.138 1.649 3.786 3.786 3.786h22.712c2.138 0 3.786-1.648 3.786-3.786V18.654c.002-2.139-1.648-3.785-3.784-3.785zm-11.334 9.193c3.358 0 6.08 2.638 6.08 5.891s-2.722 5.891-6.08 5.891c-3.357 0-6.08-2.64-6.08-5.89 0-3.256 2.723-5.892 6.08-5.892zm11.334 16.357c0 .664-.283.947-.947.947H19.59c-.662 0-.947-.283-.947-.947V27.171l2.359.513a8.812 8.812 0 0 0-.39 2.597c0 5.033 4.215 9.118 9.409 9.118 5.197 0 9.41-4.083 9.41-9.118 0-.903-.137-1.773-.39-2.597l2.314-.513v13.248h.002zm0-17.034a.947.947 0 0 1-.947.947h-3.786a.947.947 0 0 1-.947-.947v-3.786c0-.523.424-.947.947-.947h3.786c.523 0 .947.424.947.947v3.786z" fill="#FFF"/></g></svg>