<svg width="60" height="60" viewBox="0 0 60 60" xmlns="http://www.w3.org/2000/svg"><title>1483945337_social_media_logo_spotify</title><g fill="none" fill-rule="evenodd"><path d="M30 0C13.43 0 0 13.43 0 30c0 16.568 13.43 30 30 30s30-13.432 30-30C60 13.43 46.57 0 30 0z" fill="#F0AA37"/><path d="M26.378 17.417c-2.31-.056-4.864.122-7.409.514-1.796.268-3.58.601-5.298 1.194a2.451 2.451 0 0 0-1.528 3.113c.457 1.316 1.807 1.996 3.134 1.595 3.291-.982 6.683-1.339 10.097-1.46 2.232-.08 4.452.067 6.66.301 2.7.28 5.355.792 7.954 1.562a30.373 30.373 0 0 1 6.326 2.689c1.161.658 2.444.401 3.237-.59.802-1.015.748-2.266-.145-3.246-.324-.368-.77-.58-1.194-.814-2.533-1.395-5.21-2.41-7.999-3.146-4.43-1.198-8.96-1.768-13.835-1.712zm-.201 9.17c-.926.023-1.763.046-2.599.09-2.79.134-5.51.625-8.188 1.418-1.206.356-1.796 1.46-1.44 2.655.313 1.048 1.451 1.64 2.588 1.339.39-.101.781-.246 1.183-.336 4.44-1.093 8.936-1.237 13.455-.613 4.273.58 8.323 1.83 12.026 4.072a2.072 2.072 0 0 0 2.833-.635c.647-1.014.336-2.321-.703-2.957a28.05 28.05 0 0 0-4.106-2.098c-4.862-1.986-9.917-2.912-15.05-2.934zm-1.082 8.77c-.836.034-1.674.079-2.5.156-2.13.178-4.227.547-6.314 1.025-.96.223-1.495 1.093-1.294 1.963.212.938 1.025 1.452 2.03 1.26a84.476 84.476 0 0 0 1.641-.324c2.231-.48 4.508-.692 6.784-.782 1.483-.056 2.968.034 4.44.19 2.567.267 5.032.88 7.408 1.874 1.15.48 2.22 1.105 3.324 1.684.792.413 1.774.113 2.175-.636.458-.847.212-1.773-.602-2.265-1.293-.79-2.654-1.45-4.072-2.03-4.174-1.725-8.546-2.239-13.02-2.115z" fill="#FFF"/></g></svg>