<svg xmlns="http://www.w3.org/2000/svg" viewBox="0 0 448.08 302.19" width="495" height="313">
  <defs>
    <style>
      .cls-4{fill:#0f3359}.cls-3{fill:#429eb5}.cls-4{fill-rule:evenodd}.cls-5{fill:#081b2f}.cls-7{fill:none;stroke:#0f3359;stroke-miterlimit:10}
    </style>
  </defs>
  <title>
    Asset 4
  </title>
  <g id="Layer_2" data-name="Layer 2">
    <g id="Layer_4" data-name="Layer 4">
      <rect width="271" height="140" fill="#0f3359" rx="9.65" ry="9.65"/>
      <path fill="#154e6e" d="M16 7.52h239a8.49 8.49 0 0 1 8.5 8.48v106.24H7.5V16A8.49 8.49 0 0 1 16 7.52z"/>
      <path d="M33.11 26.61l1.92 9 2-9h3.22L37 40h-3.45l-2-8.82h-.06L29.57 40h-3.46l-3.3-13.36h3.36l2 9 1.9-9zM44.79 40.21c-3 0-5.1-1.92-5.1-5.3s2.06-5.3 5.1-5.3 5.08 1.9 5.08 5.3-2.06 5.3-5.08 5.3zm0-8.2c-1.26 0-1.82 1-1.82 2.9s.56 2.88 1.82 2.88 1.8-1 1.8-2.88S46 32 44.79 32zM57.71 33a3.32 3.32 0 0 0-1.26-.22c-1.2 0-2.2.78-2.2 2.5V40h-3.3V29.85h2.86l.38 2.3a3 3 0 0 1 3.68-2.46zM68.91 40h-3.7l-2.62-4.18h-.64V40h-3.3V25.53h3.3v7.88h.66L65 29.85h3.6l-3.14 4.68zM72.47 32.27v-2.42h1.3v-.58a3.73 3.73 0 0 1 4-4 4.61 4.61 0 0 1 2.5.7l-.8 2.2a1.57 1.57 0 0 0-1.16-.44c-.84 0-1.26.58-1.26 1.52v.58h2.2v2.42h-2.2V40h-3.3v-7.7z" class="cls-3"/>
      <path d="M84.69 39.67a4.27 4.27 0 0 1-2.14.5 2.51 2.51 0 0 1-2.78-2.72V25.53h3.3v11.2c0 .6.24.86.7.86a1.25 1.25 0 0 0 .76-.26zM87.19 28.77A1.78 1.78 0 1 1 89.11 27a1.79 1.79 0 0 1-1.92 1.77zm1.64 1.08V40h-3.3V29.85zM93.71 31.71a3.13 3.13 0 0 1 3.06-2.1c2.58 0 4.1 2.12 4.1 5.16 0 3.36-1.74 5.44-4.28 5.44a3 3 0 0 1-2.78-1.48v5.2h-3.3V29.85h2.82zm.1 4c0 1.44.8 2.12 1.74 2.12 1.22 0 1.92-1 1.92-2.92s-.72-2.72-1.88-2.72c-1 0-1.78.82-1.78 2.36zM105.15 31.71a3.13 3.13 0 0 1 3.06-2.1c2.58 0 4.1 2.12 4.1 5.16 0 3.36-1.74 5.44-4.28 5.44a3 3 0 0 1-2.78-1.48v5.2h-3.3V29.85h2.82zm.1 4c0 1.44.8 2.12 1.74 2.12 1.22 0 1.92-1 1.92-2.92s-.72-2.72-1.88-2.72c-1 0-1.78.82-1.78 2.36zM115 28.77a1.78 1.78 0 1 1 2-1.77 1.79 1.79 0 0 1-2 1.77zm1.64 1.08V40h-3.3V29.85zM121.59 31.79a3.26 3.26 0 0 1 3.24-2.18 3 3 0 0 1 3.17 3.28V40h-3.3v-6c0-1-.36-1.6-1.32-1.6s-1.7.6-1.7 2.14V40h-3.3V29.85h2.82zM133.45 44.18c-2.38 0-4.9-.62-4.9-2.52 0-1.06.9-1.74 2.18-1.92a1.88 1.88 0 0 1-1.44-1.88 2.14 2.14 0 0 1 1.84-2 3 3 0 0 1-1.92-2.86c0-2.22 1.84-3.42 4.58-3.42a6.17 6.17 0 0 1 2.76.6 3.07 3.07 0 0 0 .54-1.64l2.62.86a2.32 2.32 0 0 1-1.86 1.88 2.93 2.93 0 0 1 .54 1.72c0 2.26-2 3.34-4.6 3.34a6.73 6.73 0 0 1-1.44-.14.7.7 0 0 0-.48.64c0 .36.3.5.7.5h2.68c2.8 0 4.16 1.06 4.16 3 0 2.84-3 3.84-5.96 3.84zm.12-2c1.8 0 3-.38 3-1.2 0-.54-.48-.8-1.3-.8h-2.86c-.7 0-1.16.32-1.16.88-.04.8.86 1.15 2.32 1.15zm.22-7.7c.84 0 1.34-.54 1.34-1.5s-.5-1.5-1.34-1.5-1.36.54-1.36 1.5a1.31 1.31 0 0 0 1.36 1.53zM147.21 31.65a3.25 3.25 0 0 1 3.16-2 3 3 0 0 1 3.16 3.28V40h-3.3v-6c0-1-.36-1.6-1.32-1.6s-1.7.6-1.7 2.14V40h-3.3V25.53h3.3zM163.53 37c0 .52.28.72.64.72a.82.82 0 0 0 .56-.22l.12 2.14a3.3 3.3 0 0 1-1.82.5 2.51 2.51 0 0 1-2.08-.92 1.72 1.72 0 0 1-.34-.66 3.06 3.06 0 0 1-2.92 1.58c-1.9 0-3.2-1.08-3.2-2.94 0-2 1.74-3.14 4.6-3.14.4 0 .92 0 1.26.06v-1a1 1 0 0 0-1.14-1.12c-.78 0-1.2.5-1.2 1.36l-3-.42c.18-2 1.8-3.28 4.36-3.28 2.88 0 4.18 1.26 4.18 3.4zm-3.18-1.26a6.77 6.77 0 0 0-.7 0c-1.32 0-2 .42-2 1.24a1.05 1.05 0 0 0 1.2 1.06 1.46 1.46 0 0 0 1.5-1.66zM172.33 33a3.32 3.32 0 0 0-1.26-.22c-1.2 0-2.2.78-2.2 2.5V40h-3.3V29.85h2.86l.38 2.3a3 3 0 0 1 3.68-2.46zM179.81 38.11a3 3 0 0 1-3.06 2.1c-2.26 0-4.06-1.86-4.06-5.08 0-3.54 1.72-5.52 4.26-5.52a2.77 2.77 0 0 1 2.78 1.54v-5.62H183V40h-2.86zm-.08-4c0-1.42-.86-2.1-1.74-2.1-1.2 0-1.92 1-1.92 3 0 1.72.72 2.64 1.86 2.64 1 0 1.8-.76 1.8-2.34zM190.85 36.47l2.68.92a4.28 4.28 0 0 1-4.4 2.82c-3 0-5-1.94-5-5.2s1.92-5.4 5.08-5.4c3 0 4.4 2 4.4 4.54a5.6 5.6 0 0 1-.18 1.34h-6.14c0 1.44.78 2.28 1.9 2.28a1.6 1.6 0 0 0 1.66-1.3zm-.32-2.54a1.72 1.72 0 0 0 0-.46 1.42 1.42 0 0 0-1.44-1.54c-1 0-1.7.76-1.8 2zM201.45 33a3.32 3.32 0 0 0-1.26-.22c-1.2 0-2.2.78-2.2 2.5V40h-3.3V29.85h2.86l.38 2.3a3 3 0 0 1 3.68-2.46zM202.63 40.15a1.93 1.93 0 1 1 1.92-1.92 1.87 1.87 0 0 1-1.92 1.92z" class="cls-3"/>
      <path d="M107.5 145.09h56a6.5 6.5 0 0 1 0 13h-56a6.5 6.5 0 0 1 0-13z" class="cls-4"/>
      <path d="M127 134.17h17l3 12h-23l3-12z" class="cls-4"/>
      <rect width="252" height="19" x="9.5" y="151.59" class="cls-5" rx="8" ry="8"/>
      <path fill="#081b2f" fill-rule="evenodd" d="M38 163.18h195a7 7 0 0 1 0 14H38a7 7 0 0 1 0-14z"/>
      <path d="M229.5 167.19h12v135h-12zM29.5 167.19h12v135h-12z" class="cls-5"/>
      <path d="M268.62 23.45h7a4 4 0 0 1 0 8h-7a4 4 0 0 1 0-8z" class="cls-4"/>
      <path d="M279.62 27.45H300M299.82 7.25h148.26M299.82 7.25v20.38" class="cls-7"/>
    </g>
  </g>
</svg>
