<svg xmlns="http://www.w3.org/2000/svg" width="24" height="24">
  <path fill="#041322" fill-rule="evenodd" d="M21.6 19.2c0 1.3248-1.0752 2.4-2.4 2.4H4.8c-1.3248 0-2.4-1.0752-2.4-2.4v-8.4h2.5212c-.066.3924-.1212.7896-.1212 1.2 0 3.9768 3.2244 7.2 7.2 7.2s7.2-3.2232 7.2-7.2c0-.4104-.054-.8076-.1212-1.2H21.6v8.4zM12 7.2c2.6508 0 4.8 2.1492 4.8 4.8s-2.1492 4.8-4.8 4.8-4.8-2.1492-4.8-4.8S9.3492 7.2 12 7.2zm4.8 0h3.6V3.6h-3.6v3.6zM19.2 0H4.8C2.1492 0 0 2.1492 0 4.8v14.4C0 21.8508 2.1492 24 4.8 24h14.4c2.6508 0 4.8-2.1492 4.8-4.8V4.8C24 2.1492 21.8508 0 19.2 0z"/>
</svg>
