<svg xmlns="http://www.w3.org/2000/svg" width="24" height="24">
  <path fill="#041322" fill-rule="evenodd" d="M16.909 16.3636h-2.1817V13.091c0-.6105-.1877-1.0992-.7097-1.0992-.9267 0-.9267 1.099-.9267 1.099v3.2728h-2.182v-6h2.182l-.0023.9655s.2166-.973 1.8333-.973c1.2447 0 1.987 1.027 1.987 2.735v3.2726zm-8.186-6.542c-.5995 0-1.0866-.49-1.0866-1.0927 0-.604.487-1.0926 1.0865-1.0926.601 0 1.087.4887 1.087 1.0925 0 .6026-.486 1.0925-1.087 1.0925zm-1.0866 6.542H9.81V10.356H7.6364v6.0076zM21.8182 0H2.1818C.9768 0 0 .977 0 2.1818v19.6364C0 23.0232.977 24 2.1818 24h19.6364C23.0232 24 24 23.023 24 21.8182V2.1818C24 .9768 23.023 0 21.8182 0z"/>
</svg>
