<svg xmlns="http://www.w3.org/2000/svg" viewBox="0 0 692.69 692.87"><defs><style>.cls-1{fill:#fff;}</style></defs><title>Asset 2</title><g id="Layer_2" data-name="Layer 2"><g id="Layer_1-2" data-name="Layer 1"><path class="cls-1" d="M0,456.16V530.1c89.25,1.12,161.65,73.51,162.77,162.77h73.95C235.59,562.84,130,457.28,0,456.16Z"/><path class="cls-1" d="M0,304.1v71.83c174.17,1.12,315.64,142.59,316.76,316.76h71.83C387.47,478.92,213.78,305.23,0,304.1Z"/><path class="cls-1" d="M0,152.05v71.83C258,225,467.68,434.68,468.81,692.69h71.83C539.52,395.07,297.62,153.18,0,152.05Z"/><path class="cls-1" d="M0,0V71.83c341.86,1.12,619.74,279,620.86,620.86h71.83C691.55,311.25,381.44,1.14,0,0Z"/><path class="cls-1" d="M0,610.29v82.58H82.58A84.81,84.81,0,0,0,0,610.29Z"/><path class="cls-1" d="M692.69,345.11V206.89A824.7,824.7,0,0,0,480.47,0H333.71A753.88,753.88,0,0,1,692.69,345.11Z"/><path class="cls-1" d="M692.69,78.89V0H612A913.6,913.6,0,0,1,692.69,78.89Z"/></g></g></svg>