<?xml version="1.0" encoding="utf-8"?>
<!-- Generator: Adobe Illustrator 21.0.2, SVG Export Plug-In . SVG Version: 6.00 Build 0)  -->
<svg version="1.1" id="Layer_1" xmlns="http://www.w3.org/2000/svg" xmlns:xlink="http://www.w3.org/1999/xlink" x="0px" y="0px"
	 viewBox="0 0 418 418.1" style="enable-background:new 0 0 418 418.1;" xml:space="preserve">
<style type="text/css">
	.st0{fill:#041322;}
</style>
<title>Asset 2</title>
<g id="Layer_2">
	<g id="Layer_1-2">
		<path class="st0" d="M0,273.6v46.9c53.9,0.1,97.6,43.7,97.6,97.6h46.9C144.5,338.4,79.7,273.6,0,273.6z"/>
		<path class="st0" d="M0,182.4V228c104.8,0,190,85.2,190,190h45.6C235.6,288.1,129.9,182.4,0,182.4z"/>
		<path class="st0" d="M0,91.2v45.6c155,0,281.2,126.1,281.2,281.2h45.6C326.8,237.8,180.2,91.2,0,91.2z"/>
		<path class="st0" d="M0,0v45.6c205.3,0,372.4,167,372.4,372.4H418C418,187.5,230.5,0,0,0z"/>
		<path class="st0" d="M0,366v52.1h52.1C52.1,389.3,28.8,366,0,366z"/>
		<path class="st0" d="M289.8,0h-94.3C292.5,42.8,371.2,118.5,418,213.6v-88.6C383.2,75.9,339.7,33.6,289.8,0z"/>
		<path class="st0" d="M364.9,0c18.8,16.1,36.5,33.4,53,51.9V0H364.9z"/>
	</g>
</g>
</svg>
