<svg xmlns="http://www.w3.org/2000/svg" id="Layer_1" viewBox="0 0 700.2 76.6">
  <style>
    .logo-blue-modal{fill:#041322;}
  </style>
  <title>
    Reverb Consulting Logo
  </title>
  <g id="Layer_2">
    <g id="Layer_1-2">
      <path d="M131.4 32.9c-1.6-.6-3.3-.9-4.9-.9-4.7 0-8.6 3.1-8.6 9.8v18.3H105V20.5h11.2l1.5 9c1.6-6.7 6.9-11 14.4-9.6l-.7 13zM159.1 46.4l10.5 3.6c-2.4 7.7-9.6 11.1-17.2 11.1-11.9 0-19.6-7.6-19.6-20.4 0-12.9 7.5-21.2 19.9-21.2 11.6 0 17.2 8 17.2 17.8 0 1.8-.3 3.5-.7 5.2h-24.1c.1 5.7 3.1 8.9 7.4 8.9 3.3.1 5.6-1.4 6.6-5zm-1.2-10c.1-.6.2-1.2.2-1.8 0-3.2-2-6-5.6-6-4 0-6.7 3-7.1 7.8h12.5zM191.1 46l8.2-25.6h12.4l-14.6 39.7h-12.7l-14.6-39.7h13.5L191 46h.1zM237.5 46.4L248 50c-2.4 7.7-9.6 11.1-17.2 11.1-11.9 0-19.6-7.6-19.6-20.4 0-12.9 7.5-21.2 19.9-21.2 11.6 0 17.2 8 17.2 17.8 0 1.8-.3 3.5-.7 5.2h-24c.1 5.7 3.1 8.9 7.4 8.9 3.2.1 5.5-1.4 6.5-5zm-1.2-10c.1-.6.2-1.2.2-1.8 0-3.2-2-6-5.6-6-4 0-6.7 3-7.1 7.8h12.5zM279.5 32.9c-1.6-.6-3.3-.9-4.9-.9-4.7 0-8.6 3.1-8.6 9.8v18.3h-13V20.5h11.2l1.5 9c1.6-6.7 6.9-11 14.4-9.6l-.6 13zM296.5 27.3c1.6-4.7 6-7.8 11.6-7.8 10.1 0 16.1 8.3 16.1 20.2 0 13.2-6.8 21.3-16.9 21.3-5.4 0-9.8-2.8-11.5-7.6l-1.6 6.7h-10.6V8.8h12.9v18.5zm0 15.5c0 6.1 3.1 8.8 6.8 8.8 4.8 0 7.5-4 7.5-11.5 0-7.1-2.8-10.7-7.4-10.7-3.8 0-7 3.1-7 9.3l.1 4.1zM356.6 19.5c9.9 0 16.1 5.4 16.9 13.5l-11.1 2.4c-.3-3.6-2-6.4-5.6-6.4-4.8 0-6.9 4.5-6.9 11.3 0 7.1 2.3 11.2 6.9 11.2 3.2 0 5.3-2.3 5.7-6.3l11.2 3.5c-1.5 7.8-8 12.5-16.9 12.5-12.1 0-19.9-7.8-19.9-20.8s7.9-20.9 19.7-20.9zM395.5 61.1c-11.9 0-20-7.5-20-20.8s8.1-20.8 20-20.8 19.9 7.5 19.9 20.8-8.1 20.8-19.9 20.8zm0-32.2c-4.9 0-7.1 4.1-7.1 11.4s2.2 11.3 7.1 11.3 7.1-4 7.1-11.3-2.3-11.4-7.1-11.4zM432.6 28.1c2-5.5 6.7-8.6 12.7-8.6 7.1 0 12.4 4.4 12.4 12.9v27.8h-12.9V36.5c0-3.9-1.4-6.3-5.2-6.3-3.6 0-6.7 2.3-6.7 8.4v21.5H420V20.5h11.1l1.5 7.6zM471.9 47.8c.5 2.9 3.2 4.9 6.5 4.9s5.4-1.2 5.4-3.8c0-6.9-21.4-.7-21.4-16.1 0-8.7 7.5-13.3 16.8-13.3 9.4 0 15.3 4.2 16.5 11.5L485 32.2c-.3-2.7-2.3-4.5-5.6-4.5-3 0-4.8 1.4-4.8 3.8 0 7 21.6.5 21.6 16.3 0 8.6-7.4 13.2-17.7 13.2-8.6 0-15.5-3.5-17.2-10.8l10.6-2.4zM524.8 52.9c-1.7 5.3-6 8.2-12.1 8.2-6.7 0-12.5-4.2-12.5-12.9V20.5h12.9v24.1c0 3.9 1.7 6.2 5.1 6.2 3.6 0 6.3-2.6 6.3-8.5V20.5h12.9v39.7h-11.1l-1.5-7.3zM562.9 59c-2.6 1.4-5.5 2.1-8.4 2-5.6 0-10.9-2.7-10.9-10.7V8.8h12.9v38.7c0 2.3.9 3.4 2.7 3.4 1.1 0 2.1-.3 3-1l.7 9.1zM592.4 57.8c-3.2 2.2-7 3.4-10.8 3.3-8.4 0-14.2-4.1-14.2-13.4V30h-5.1v-9.5h5.2v-8.4l12.9-1.6v10h10.3V30h-10.3v16c0 3.3 1.7 4.8 4.5 4.8 2.2 0 4.3-.7 6-2l1.5 9zM602.7 16.2c-3.9 0-7.5-2.5-7.5-6.9s3.6-7 7.5-7 7.5 2.5 7.5 7-3.6 6.9-7.5 6.9zm6.4 4.3v39.7h-12.9V20.5h12.9zM628.7 28.1c2-5.5 6.7-8.6 12.7-8.6 7.1 0 12.4 4.4 12.4 12.9v27.8h-12.9V36.5c0-3.9-1.4-6.3-5.2-6.3-3.6 0-6.7 2.3-6.7 8.4v21.5h-13V20.5h11.1l1.6 7.6zM675.6 76.6c-9.3 0-19.2-2.4-19.2-9.9 0-4.2 3.5-6.8 8.5-7.5-3.4-.8-5.7-3.9-5.7-7.4 0-4 3.1-6.9 7.2-7.8-4.6-2.1-7.5-5.8-7.5-11.1 0-8.7 7.2-13.4 18-13.4 3.7-.1 7.4.7 10.8 2.4 1.2-1.4 1.9-4 2.1-6.4l10.3 3.4c-.5 4.1-3.9 6.6-7.3 7.4 1.4 2 2.1 4.3 2.1 6.8 0 8.9-7.8 13.1-18 13.1-1.9 0-3.8-.2-5.7-.5-1.1.3-1.9 1.4-1.9 2.5 0 1.4 1.2 2 2.7 2h10.5c11 0 16.3 4.2 16.3 11.9.2 10.6-11.6 14.5-23.2 14.5zm.5-7.7c7.1 0 11.6-1.5 11.6-4.7 0-2.1-1.9-3.1-5.1-3.1h-11.2c-2.7 0-4.5 1.2-4.5 3.4-.1 3 3.4 4.4 9.2 4.4zm.8-30.2c3.3 0 5.2-2.1 5.2-5.9s-2-5.9-5.2-5.9c-3.5 0-5.3 2.1-5.3 5.9 0 3.7 1.9 5.9 5.3 5.9zM0 50v8.6c9.9 0 17.8 8 17.9 17.9h8.6C26.4 61.8 14.6 50 0 50z" class="logo-blue-modal"/>
      <path d="M0 33.3v8.3c19.2 0 34.7 15.6 34.7 34.7H43c0-23.7-19.2-42.9-43-43z" class="logo-blue-modal"/>
      <path d="M0 16.7V25c28.4 0 51.4 23 51.4 51.4h8.3c0-33-26.7-59.7-59.7-59.7z" class="logo-blue-modal"/>
      <path d="M0 0v8.3c37.6 0 68 30.5 68.1 68.1h8.3C76.4 34.2 42.2 0 0 0zM0 66.9v9.5h9.5c0-5.2-4.2-9.5-9.5-9.5z" class="logo-blue-modal"/>
      <path d="M53 0H35.7c17.7 7.8 32.1 21.6 40.7 39V22.8C70.1 13.9 62.1 6.1 53 0zM66.7 0c3.4 2.9 6.7 6.1 9.7 9.5V0h-9.7z" class="logo-blue-modal"/>
    </g>
  </g>
</svg>
