<svg xmlns="http://www.w3.org/2000/svg" viewBox="0 0 104.33 136.69" width="102" height="137">
  <defs>
    <style>
      .cls-3{fill:#f4f4f4}
    </style>
  </defs>
  <title>
    Asset 3
  </title>
  <g id="Layer_2" data-name="Layer 2">
    <g id="Layer_3" data-name="Layer 3">
      <path fill="#373737" d="M6.14 53.69h65.72A6.14 6.14 0 0 1 78 59.83V123a13.73 13.73 0 0 1-13.73 13.73H13.73A13.73 13.73 0 0 1 0 123V59.83a6.14 6.14 0 0 1 6.14-6.14z"/>
      <path fill="#434343" d="M73.53 56.3h-72v68a4.08 4.08 0 0 0 7 2.82l65.9-68.74a1.26 1.26 0 0 0-.9-2.08z"/>
      <path d="M16.31 93.36h-2.93L12.8 95h-2l2.91-8H16l2.92 8h-2.03zm-2.43-1.49h1.92l-.95-2.77zM21.86 94.85a2.56 2.56 0 0 1-1.28.3 1.5 1.5 0 0 1-1.67-1.63v-7.15h2v6.72c0 .36.14.52.42.52a.75.75 0 0 0 .46-.16zM26.51 89l.9 3.92.87-3.92h1.89l-1.64 6h-1.91l-.88-3.73-.89 3.73h-1.91l-1.64-6h2l.84 3.92L25 89zM35.11 93.26c0 .31.17.43.38.43a.49.49 0 0 0 .34-.13l.07 1.28a2 2 0 0 1-1.09.3 1.51 1.51 0 0 1-1.25-.55 1 1 0 0 1-.2-.4 1.83 1.83 0 0 1-1.75.95 1.72 1.72 0 0 1-1.92-1.76c0-1.21 1-1.88 2.76-1.88h.76v-.61a.63.63 0 0 0-.68-.71c-.47 0-.72.3-.72.82L30 90.78c.11-1.21 1.08-2 2.61-2 1.73 0 2.51.76 2.51 2zm-1.91-.76h-.42c-.79 0-1.2.25-1.2.74a.63.63 0 0 0 .72.64.88.88 0 0 0 .9-1z" class="cls-3"/>
      <path d="M39.7 89h1.9l-2.18 6.22c-.59 1.68-1.38 2.36-2.7 2.36a2.61 2.61 0 0 1-1.34-.35l.37-1.43a1.16 1.16 0 0 0 .74.28c.42 0 .65-.19.88-.85L35.19 89h2.05l1.19 4.11zM42.73 93.14a1 1 0 0 0 1 .74c.5 0 .83-.19.83-.58 0-1.06-3.27-.11-3.27-2.46 0-1.33 1.15-2 2.57-2s2.34.64 2.52 1.76l-1.64.19a.77.77 0 0 0-.86-.7c-.46 0-.73.22-.73.58 0 1.07 3.3.07 3.3 2.5 0 1.32-1.13 2-2.71 2-1.32 0-2.37-.54-2.64-1.65zM11.47 110v-8H17v1.68h-3.52v1.83h3.13v1.62h-3.13V110zM20.26 109.85a2.56 2.56 0 0 1-1.28.3 1.5 1.5 0 0 1-1.67-1.63v-7.15h2v6.72c0 .36.14.52.42.52a.75.75 0 0 0 .46-.16zM21.44 103.31a1.06 1.06 0 1 1 1.15-1.05 1.07 1.07 0 0 1-1.15 1.05zm1 .65V110h-2v-6zM25 105.07a1.88 1.88 0 0 1 1.83-1.26c1.55 0 2.46 1.27 2.46 3.09 0 2-1 3.26-2.57 3.26a1.8 1.8 0 0 1-1.67-.89v3.12h-2V104h1.75zm.06 2.4c0 .86.48 1.27 1 1.27.73 0 1.15-.62 1.15-1.75s-.43-1.63-1.13-1.63-1.07.49-1.07 1.42zM31.57 105.07a1.88 1.88 0 0 1 1.83-1.26c1.55 0 2.46 1.27 2.46 3.09 0 2-1 3.26-2.57 3.26a1.8 1.8 0 0 1-1.67-.89v3.12h-2V104h1.69zm.06 2.4c0 .86.48 1.27 1 1.27.73 0 1.15-.62 1.15-1.75s-.43-1.63-1.13-1.63-1.07.49-1.07 1.42zM37.19 103.31a1.06 1.06 0 1 1 1.15-1.05 1.07 1.07 0 0 1-1.15 1.05zm1 .65V110h-2v-6zM40.78 105.12a2 2 0 0 1 1.94-1.31 1.79 1.79 0 0 1 1.9 2V110h-2v-3.61c0-.6-.22-1-.79-1s-1 .36-1 1.28V110h-2v-6h1.69zM47.58 112.54c-1.43 0-2.94-.37-2.94-1.51 0-.64.54-1 1.31-1.15a1.13 1.13 0 0 1-.86-1.13 1.29 1.29 0 0 1 1.1-1.2 1.79 1.79 0 0 1-1.19-1.69c0-1.33 1.1-2.05 2.75-2.05a3.7 3.7 0 0 1 1.66.36 1.85 1.85 0 0 0 .32-1l1.57.52a1.39 1.39 0 0 1-1.12 1.13 1.76 1.76 0 0 1 .32 1c0 1.36-1.2 2-2.76 2a4 4 0 0 1-.86-.08.42.42 0 0 0-.29.38c0 .22.18.3.42.3h1.61c1.68 0 2.5.64 2.5 1.82.03 1.7-1.77 2.3-3.54 2.3zm.07-1.17c1.08 0 1.77-.23 1.77-.72 0-.32-.29-.48-.78-.48h-1.71c-.42 0-.7.19-.7.53s.54.67 1.42.67zm.13-4.62c.5 0 .8-.32.8-.9s-.3-.9-.8-.9-.82.32-.82.9a.79.79 0 0 0 .82.9zM11.47 117h3c2.39 0 4.07 1.25 4.07 4s-1.69 4-4.07 4h-3zm2 6.33h.9c1.17 0 2.09-.66 2.09-2.34s-.91-2.31-2.08-2.31h-.91zM22.64 122.93l1.61.55a2.57 2.57 0 0 1-2.64 1.69 2.84 2.84 0 0 1-3-3.12 2.92 2.92 0 0 1 3-3.24 2.5 2.5 0 0 1 2.64 2.72 3.31 3.31 0 0 1-.11.8H20.5c0 .86.47 1.37 1.14 1.37a1 1 0 0 0 1-.77zm-.19-1.52a1 1 0 0 0 0-.28.85.85 0 0 0-.86-.92c-.61 0-1 .46-1.08 1.2zM27.46 124.85a2.56 2.56 0 0 1-1.28.3 1.5 1.5 0 0 1-1.67-1.63v-7.15h2v6.72c0 .36.14.52.42.52a.75.75 0 0 0 .46-.16zM28.64 118.31a1.06 1.06 0 1 1 1.15-1.05 1.07 1.07 0 0 1-1.15 1.05zm1 .65V125h-2v-6zM33 122.87l1.26-3.87h1.89l-2.23 6H32l-2.25-6h2.06l1.19 3.87zM39.72 122.93l1.61.55a2.57 2.57 0 0 1-2.64 1.69 2.84 2.84 0 0 1-3-3.12 2.92 2.92 0 0 1 3-3.24 2.5 2.5 0 0 1 2.64 2.72 3.36 3.36 0 0 1-.11.8h-3.64c0 .86.47 1.37 1.14 1.37a1 1 0 0 0 1-.77zm-.19-1.52a1 1 0 0 0 0-.28.85.85 0 0 0-.86-.92c-.61 0-1 .46-1.08 1.2zM45.75 120.86a2 2 0 0 0-.75-.13c-.72 0-1.32.47-1.32 1.5V125h-2v-6h1.72l.23 1.38a1.82 1.82 0 0 1 2.21-1.48zM47.72 125.13a1.16 1.16 0 1 1 1.15-1.13 1.12 1.12 0 0 1-1.15 1.13z" class="cls-3"/>
      <ellipse cx="68.66" cy="41.02" fill="#e9e9e9" rx="8.13" ry="4.88"/>
      <ellipse cx="84.33" cy="26.69" fill="#e9e9e9" opacity=".6" rx="11.67" ry="7"/>
      <ellipse cx="64.33" cy="9.36" fill="#e9e9e9" opacity=".4" rx="15.6" ry="9.36"/>
      <path fill="none" stroke="#373737" stroke-miterlimit="10" stroke-width="6" d="M72.33 64.36h13a16 16 0 0 1 16 16V91a16 16 0 0 1-16 16h-13V64.36z"/>
    </g>
  </g>
</svg>
