<svg xmlns="http://www.w3.org/2000/svg" width="357" height="270" xmlns:xlink="http://www.w3.org/1999/xlink">
  <defs>
    <rect id="a" width="282" height="165" x="38" rx="6.4"/>
  </defs>
  <g fill="none" fill-rule="evenodd">
    <g transform="translate(-1)">
      <use fill="#143559" fill-opacity=".2801" xlink:href="#a"/>
      <rect width="275.6" height="158.6" x="41.2" y="3.2" stroke="#0D2845" stroke-width="6.4" rx="6.4"/>
    </g>
    <path fill="#0D2845" d="M41.711 161h273.576c2.6842 0 5.083 1.6748 6.008 4.1944l35.3168 96.2c1.2182 3.318-.4842 6.9954-3.8023 8.2135-.7064.2593-1.453.392-2.2056.392H6.3942c-3.5346 0-6.4-2.8654-6.4-6.4 0-.7525.1328-1.4992.392-2.2056l35.317-96.2C36.6282 162.6748 39.027 161 41.711 161z"/>
    <path fill="#041322" d="M46.2462 166H309.018c.6852 0 1.2944.4364 1.515 1.0852l23.3816 68.8c.2843.8366-.1634 1.7454-1 2.0297-.166.0563-.3398.085-.515.085H23.6c-.8838 0-1.6-.7163-1.6-1.6 0-.17.027-.3388.08-.5003l22.6464-68.8c.216-.6562.829-1.0997 1.5198-1.0997zM142.6993 245h71.4364c.7505 0 1.4.5216 1.5622 1.2544l3.2736 14.8c.1908.8628-.354 1.717-1.2167 1.9078-.1136.025-.2294.0378-.3457.0378H139.591c-.8838 0-1.6-.7163-1.6-1.6 0-.1105.0113-.2207.034-.329l3.1085-14.8c.1556-.7406.809-1.271 1.5658-1.271z"/>
    <text fill="#5271C7" font-family="LucidaGrande, Lucida Grande" font-size="8" transform="translate(-1)">
      <tspan x="55" y="21">&lt;</tspan> <tspan x="61.3594" y="21" font-family="National2Test-Light, National 2 Test" font-weight="300">p</tspan> <tspan x="65.9114" y="21">&gt;</tspan> <tspan x="72.2708" y="21" font-family="National2Test-Light, National 2 Test" font-weight="300">Aliquam </tspan> <tspan x="103.0228" y="21">&lt;</tspan> <tspan x="109.3821" y="21" font-family="National2Test-Light, National 2 Test" font-weight="300">del</tspan> <tspan x="120.1181" y="21">&gt;</tspan> <tspan x="126.4775" y="21" font-family="National2Test-Light, National 2 Test" font-weight="300">tincidunt velit</tspan> <tspan x="174.6855" y="21">&lt;/</tspan> <tspan x="185.2402" y="21" font-family="National2Test-Light, National 2 Test" font-weight="300">del</tspan> <tspan x="195.9762" y="21">&gt;</tspan> <tspan x="202.3356" y="21" font-family="National2Test-Light, National 2 Test" font-weight="300"> sit amet ante hendrerit </tspan> <tspan x="55" y="40.2" font-family="National2Test-Light, National 2 Test" font-weight="300">tempus. Suspendisse potenti. Aliquam tincidunt velit sit </tspan> <tspan x="250.368" y="40.2">(</tspan> <tspan x="252.9696" y="40.2" font-family="National2Test-Light, National 2 Test" font-weight="300">amet </tspan> <tspan x="55" y="59.4" font-family="National2Test-Light, National 2 Test" font-weight="300">ante hendrerit tempus</tspan> <tspan x="132.672" y="59.4">)</tspan> <tspan x="135.2736" y="59.4" font-family="National2Test-Light, National 2 Test" font-weight="300">. Suspendisse potenti H</tspan> <tspan x="216.9536" y="59.4">&lt;</tspan> <tspan x="223.3129" y="59.4" font-family="National2Test-Light, National 2 Test" font-weight="300">sub</tspan> <tspan x="235.9049" y="59.4">&gt;</tspan> <tspan x="242.2643" y="59.4" font-family="National2Test-Light, National 2 Test" font-weight="300">2</tspan> <tspan x="246.3843" y="59.4">&lt;/</tspan> <tspan x="256.939" y="59.4" font-family="National2Test-Light, National 2 Test" font-weight="300">sub</tspan> <tspan x="269.531" y="59.4">&gt;</tspan> <tspan x="275.8904" y="59.4" font-family="National2Test-Light, National 2 Test" font-weight="300">0. </tspan> <tspan x="55" y="78.6">&lt;/</tspan> <tspan x="65.5547" y="78.6" font-family="National2Test-Light, National 2 Test" font-weight="300">p</tspan> <tspan x="70.1067" y="78.6">&gt;</tspan>
    </text>
    <path stroke="#5271C7" stroke-width=".8" d="M58 98v9" stroke-linecap="square"/>
  </g>
</svg>
