<svg xmlns="http://www.w3.org/2000/svg" width="1280" height="283">
  <defs>
    <linearGradient id="a" x1="16.5945%" x2="56.7015%" y1="0%" y2="100%">
      <stop stop-color="#465B79" offset="0%"/>
      <stop stop-color="#30405C" offset="100%"/>
    </linearGradient>
  </defs>
  <g fill="none" fill-rule="evenodd" stroke="url(#a)" transform="translate(0 -3788)">
    <path d="M-139 3988.3357c137.721-176.1093 270.8404-235.5267 399.3582-178.252 192.7767 85.9117 283.6935 180.0522 380.6742 156.783 96.9808-23.269 195.6507-93.1186 314.086-96.555 118.4356-3.436 244.7154 129.1598 309.8816 118.024"/>
    <path d="M-132 3992.3357c137.721-176.1093 270.8404-235.5267 399.3582-178.252 192.7767 85.9117 283.6935 180.0522 380.6742 156.783 96.9808-23.269 195.6507-93.1186 314.086-96.555 118.4356-3.436 244.7154 129.1598 309.8816 118.024"/>
    <path d="M-124 3998.3357c137.721-176.1093 270.8404-235.5267 399.3582-178.252 192.7767 85.9117 283.6935 180.0522 380.6742 156.783 96.9808-23.269 195.6507-93.1186 314.086-96.555 118.4356-3.436 244.7154 129.1598 309.8816 118.024"/>
    <path d="M-117 4002.3357c137.721-176.1093 270.8404-235.5267 399.3582-178.252 192.7767 85.9117 283.6935 180.0522 380.6742 156.783 96.9808-23.269 195.6507-93.1186 314.086-96.555 118.4356-3.436 244.7154 129.1598 309.8816 118.024"/>
    <path d="M-107 4004.3357c137.721-176.1093 270.8404-235.5267 399.3582-178.252 192.7767 85.9117 283.6935 180.0522 380.6742 156.783 96.9808-23.269 195.6507-93.1186 314.086-96.555 118.4356-3.436 244.7154 129.1598 309.8816 118.024"/>
    <path d="M-100 4009.3357c137.721-176.1093 270.8404-235.5267 399.3582-178.252 192.7767 85.9117 283.6935 180.0522 380.6742 156.783 96.9808-23.269 195.6507-93.1186 314.086-96.555 118.4356-3.436 244.7154 129.1598 309.8816 118.024"/>
    <path d="M-92 4014.3357c137.721-176.1093 270.8404-235.5267 399.3582-178.252 192.7767 85.9117 283.6935 180.0522 380.6742 156.783 96.9808-23.269 195.6507-93.1186 314.086-96.555 118.4356-3.436 244.7154 129.1598 309.8816 118.024"/>
    <path d="M-84 4019.3357c137.721-176.1093 270.8404-235.5267 399.3582-178.252 192.7767 85.9117 283.6935 180.0522 380.6742 156.783 96.9808-23.269 195.6507-93.1186 314.086-96.555 118.4356-3.436 244.7154 129.1598 309.8816 118.024"/>
    <path d="M-77 4023.3357c137.721-176.1093 270.8404-235.5267 399.3582-178.252 192.7767 85.9117 283.6935 180.0522 380.6742 156.783 96.9808-23.269 195.6507-93.1186 314.086-96.555 118.4356-3.436 244.7154 129.1598 309.8816 118.024"/>
    <path d="M-69 4027.3357c137.721-176.1093 270.8404-235.5267 399.3582-178.252 192.7767 85.9117 283.6935 180.0522 380.6742 156.783 96.9808-23.269 195.6507-93.1186 314.086-96.555 118.4356-3.436 244.7153 129.1598 309.8816 118.024"/>
    <path d="M-62 4033.3357c137.721-176.1093 270.8404-235.5267 399.3582-178.252 192.7767 85.9117 283.6935 180.0522 380.6742 156.783 96.9808-23.269 195.6507-93.1186 314.086-96.555 118.4356-3.436 244.7153 129.1598 309.8816 118.024"/>
    <path d="M-54 4036.3357c137.721-176.1093 270.8404-235.5267 399.3582-178.252 192.7767 85.9117 283.6935 180.0522 380.6742 156.783 96.9808-23.269 195.6507-93.1186 314.086-96.555 118.4356-3.436 244.7153 129.1598 309.8816 118.024"/>
    <path d="M-45 4039.3357c137.721-176.1093 270.8404-235.5267 399.3582-178.252 192.7767 85.9117 283.6935 180.0522 380.6742 156.783 96.9808-23.269 195.6507-93.1186 314.086-96.555 118.4356-3.436 244.7153 129.1598 309.8816 118.024"/>
    <path d="M-37 4044.3357c137.721-176.1093 270.8404-235.5267 399.3582-178.252 192.7767 85.9117 283.6935 180.0522 380.6742 156.783 96.9808-23.269 195.6507-93.1186 314.086-96.555 118.4356-3.436 244.7153 129.1598 309.8816 118.024"/>
    <path d="M-30 4049.3357c137.721-176.1093 270.8404-235.5267 399.3582-178.252 192.7767 85.9117 283.6935 180.0522 380.6742 156.783 96.9808-23.269 195.6507-93.1186 314.086-96.555 118.4356-3.436 244.7153 129.1598 309.8816 118.024"/>
    <path d="M-22 4054.3357c137.721-176.1093 270.8404-235.5267 399.3582-178.252 192.7767 85.9117 283.6935 180.0522 380.6742 156.783 96.9808-23.269 195.6507-93.1186 314.086-96.555 118.4356-3.436 244.7153 129.1598 309.8816 118.024"/>
    <path d="M-15 4058.3357c137.721-176.1093 270.8404-235.5267 399.3582-178.252 192.7767 85.9117 283.6935 180.0522 380.6742 156.783 96.9807-23.269 195.6507-93.1186 314.086-96.555 118.4356-3.436 244.7153 129.1598 309.8816 118.024"/>
    <path d="M-7 4061.3357c137.721-176.1093 270.8404-235.5267 399.3582-178.252 192.7767 85.9117 283.6935 180.0522 380.6742 156.783 96.9807-23.269 195.6507-93.1186 314.086-96.555 118.4356-3.436 244.7153 129.1598 309.8816 118.024"/>
    <path d="M1 4066.3357c137.721-176.1093 270.8404-235.5267 399.3582-178.252 192.7767 85.9117 283.6935 180.0522 380.6742 156.783 96.9807-23.269 195.6507-93.1186 314.086-96.555 118.4356-3.436 244.7153 129.1598 309.8816 118.024"/>
    <path d="M8 4070.3357c137.721-176.1093 270.8404-235.5267 399.3582-178.252 192.7767 85.9117 283.6935 180.0522 380.6742 156.783 96.9807-23.269 195.6507-93.1186 314.086-96.555 118.4356-3.436 244.7153 129.1598 309.8816 118.024"/>
  </g>
</svg>
