<svg xmlns="http://www.w3.org/2000/svg" xmlns:xlink="http://www.w3.org/1999/xlink" viewBox="0 0 1427.22 260.35"><defs><style>.cls-1{fill:url(#linear-gradient);}.cls-2{fill:url(#linear-gradient-2);}.cls-3{fill:url(#linear-gradient-3);}.cls-4{fill:url(#linear-gradient-4);}.cls-5{fill:url(#linear-gradient-5);}.cls-6{fill:url(#linear-gradient-6);}.cls-7{fill:url(#linear-gradient-7);}.cls-8{fill:url(#linear-gradient-8);}.cls-9{fill:url(#linear-gradient-9);}.cls-10{fill:url(#linear-gradient-10);}.cls-11{fill:url(#linear-gradient-11);}.cls-12{fill:url(#linear-gradient-12);}.cls-13{fill:url(#linear-gradient-13);}.cls-14{fill:url(#linear-gradient-14);}.cls-15{fill:url(#linear-gradient-15);}.cls-16{fill:url(#linear-gradient-16);}.cls-17{fill:url(#linear-gradient-17);}.cls-18{fill:url(#linear-gradient-18);}.cls-19{fill:url(#linear-gradient-19);}.cls-20{fill:url(#linear-gradient-20);}</style><linearGradient id="linear-gradient" x1="212.53" y1="-119.97" x2="1079.82" y2="487.31" gradientUnits="userSpaceOnUse"><stop offset="0" stop-color="#465b79"/><stop offset="1" stop-color="#30405c"/></linearGradient><linearGradient id="linear-gradient-2" x1="218.97" y1="-116.29" x2="1086.26" y2="490.99" xlink:href="#linear-gradient"/><linearGradient id="linear-gradient-3" x1="226.33" y1="-110.77" x2="1093.61" y2="496.51" xlink:href="#linear-gradient"/><linearGradient id="linear-gradient-4" x1="232.77" y1="-107.09" x2="1100.05" y2="500.19" xlink:href="#linear-gradient"/><linearGradient id="linear-gradient-5" x1="241.96" y1="-105.25" x2="1109.25" y2="502.03" xlink:href="#linear-gradient"/><linearGradient id="linear-gradient-6" x1="248.4" y1="-100.65" x2="1115.69" y2="506.63" xlink:href="#linear-gradient"/><linearGradient id="linear-gradient-7" x1="255.76" y1="-96.05" x2="1123.05" y2="511.23" xlink:href="#linear-gradient"/><linearGradient id="linear-gradient-8" x1="263.12" y1="-91.45" x2="1130.41" y2="515.83" xlink:href="#linear-gradient"/><linearGradient id="linear-gradient-9" x1="269.56" y1="-87.77" x2="1136.85" y2="519.51" xlink:href="#linear-gradient"/><linearGradient id="linear-gradient-10" x1="276.92" y1="-84.09" x2="1144.21" y2="523.19" xlink:href="#linear-gradient"/><linearGradient id="linear-gradient-11" x1="283.36" y1="-78.57" x2="1150.65" y2="528.71" xlink:href="#linear-gradient"/><linearGradient id="linear-gradient-12" x1="290.72" y1="-75.81" x2="1158.01" y2="531.47" xlink:href="#linear-gradient"/><linearGradient id="linear-gradient-13" x1="299" y1="-73.05" x2="1166.29" y2="534.23" xlink:href="#linear-gradient"/><linearGradient id="linear-gradient-14" x1="306.36" y1="-68.46" x2="1173.65" y2="538.83" xlink:href="#linear-gradient"/><linearGradient id="linear-gradient-15" x1="312.8" y1="-63.86" x2="1180.09" y2="543.43" xlink:href="#linear-gradient"/><linearGradient id="linear-gradient-16" x1="320.16" y1="-59.26" x2="1187.45" y2="548.03" xlink:href="#linear-gradient"/><linearGradient id="linear-gradient-17" x1="326.6" y1="-55.58" x2="1193.88" y2="551.71" xlink:href="#linear-gradient"/><linearGradient id="linear-gradient-18" x1="333.96" y1="-52.82" x2="1201.24" y2="554.47" xlink:href="#linear-gradient"/><linearGradient id="linear-gradient-19" x1="341.32" y1="-48.22" x2="1208.6" y2="559.06" xlink:href="#linear-gradient"/><linearGradient id="linear-gradient-20" x1="347.75" y1="-44.54" x2="1215.04" y2="562.74" xlink:href="#linear-gradient"/></defs><title>Asset 1</title><g id="Layer_2" data-name="Layer 2"><g id="Layer_1-2" data-name="Layer 1"><path class="cls-1" d="M.72,184.12Q190.59-58.67,367.55,20.28q16.94,7.55,33.65,15.59C433,51.14,462.42,66.73,498.63,87c9.56,5.36,40.49,22.87,41.24,23.29,15.46,8.72,26.7,14.92,37.31,20.54,26.35,14,47,23.2,66,29.17,21.53,6.75,40.94,9.18,59.8,7.13A119.72,119.72,0,0,0,718,164.53c17-4.08,34.82-9.86,55.57-17.81,8.54-3.27,17.49-6.86,28.19-11.29,4.21-1.74,8.54-3.55,14.24-5.94l14.36-6c37.22-15.58,59.86-24.26,84.83-31.79,32.08-9.68,61.9-15.1,91.65-16a165.15,165.15,0,0,1,37.26,3.39c19.09,3.82,39.07,10.7,60.82,20.56,17.63,8,35.36,17.37,58.43,30.55,6,3.44,31.2,18,37.6,21.68,13.93,7.93,24.64,13.69,34.48,18.43,24.19,11.63,42.18,16.41,56.53,14l-.15-.91c-14.11,2.41-31.94-2.32-56-13.88-9.82-4.72-20.51-10.47-34.43-18.4-6.4-3.64-31.57-18.24-37.6-21.68-23.09-13.19-40.84-22.58-58.5-30.59-21.81-9.89-41.86-16.79-61-20.62a166.06,166.06,0,0,0-37.47-3.41c-29.84.87-59.73,6.29-91.89,16-25,7.55-47.67,16.23-84.92,31.82l-14.36,6c-5.7,2.39-10,4.2-14.24,5.94-10.69,4.42-19.64,8-28.17,11.28-20.72,7.93-38.5,13.7-55.45,17.77a118.79,118.79,0,0,1-14.94,2.6c-18.73,2-38-.38-59.43-7.1-19-5.95-39.53-15.17-65.84-29.11-10.6-5.61-21.83-11.82-37.28-20.53-.74-.42-31.68-17.93-41.24-23.29C462.86,65.92,433.41,50.32,401.6,35Q384.84,27,367.92,19.44,190.24-59.75,0,183.55Z"/><path class="cls-2" d="M7.16,187.8Q197-55,374,24q16.94,7.55,33.65,15.59c31.79,15.28,61.22,30.86,97.43,51.15,9.56,5.36,40.49,22.87,41.24,23.29,15.46,8.72,26.7,14.92,37.31,20.54,26.35,14,47,23.2,66,29.17,21.53,6.75,40.94,9.18,59.8,7.13a119.73,119.73,0,0,0,15.06-2.62c17-4.08,34.82-9.86,55.57-17.81,8.54-3.27,17.49-6.86,28.19-11.29,4.21-1.74,8.54-3.55,14.24-5.94l14.36-6c37.22-15.58,59.86-24.26,84.83-31.79,32.08-9.68,61.9-15.1,91.65-16a165.14,165.14,0,0,1,37.26,3.39c19.09,3.82,39.07,10.7,60.82,20.56,17.63,8,35.36,17.37,58.43,30.55,6,3.44,31.2,18,37.6,21.68,13.93,7.93,24.64,13.69,34.48,18.43,24.19,11.63,42.18,16.41,56.53,14l-.15-.91c-14.11,2.41-31.94-2.32-56-13.88-9.82-4.72-20.51-10.47-34.43-18.4-6.4-3.64-31.57-18.24-37.6-21.68-23.09-13.19-40.84-22.58-58.5-30.59-21.81-9.89-41.86-16.79-61-20.62a166.05,166.05,0,0,0-37.47-3.41c-29.84.87-59.73,6.29-91.89,16-25,7.55-47.67,16.23-84.92,31.82l-14.36,6c-5.7,2.39-10,4.2-14.24,5.94-10.69,4.42-19.64,8-28.17,11.28-20.72,7.93-38.5,13.7-55.45,17.77a118.8,118.8,0,0,1-14.94,2.6c-18.73,2-38-.38-59.43-7.1-19-5.95-39.53-15.17-65.84-29.11-10.6-5.61-21.83-11.82-37.28-20.53-.74-.42-31.68-17.93-41.24-23.29C469.3,69.6,439.85,54,408,38.72q-16.76-8.06-33.68-15.6Q196.68-56.07,6.44,187.23Z"/><path class="cls-3" d="M14.52,193.32Q204.39-49.47,381.35,29.48,398.29,37,415,45.06c31.79,15.28,61.22,30.86,97.43,51.15,9.56,5.36,40.49,22.87,41.24,23.29,15.46,8.72,26.7,14.92,37.31,20.54,26.35,14,47,23.2,66,29.17,21.53,6.75,40.94,9.18,59.8,7.13a119.73,119.73,0,0,0,15.06-2.62c17-4.08,34.82-9.86,55.57-17.81,8.54-3.27,17.49-6.86,28.19-11.29,4.21-1.74,8.54-3.55,14.24-5.94l14.36-6c37.22-15.58,59.86-24.26,84.83-31.79,32.08-9.68,61.9-15.1,91.65-16a165.15,165.15,0,0,1,37.26,3.39C1077,92.13,1097,99,1118.75,108.87c17.63,8,35.36,17.37,58.43,30.55,6,3.44,31.2,18,37.6,21.68,13.93,7.93,24.64,13.69,34.48,18.43,24.19,11.63,42.18,16.41,56.53,14l-.15-.91c-14.11,2.41-31.94-2.32-56-13.88-9.82-4.72-20.51-10.47-34.43-18.4-6.4-3.64-31.57-18.24-37.6-21.68-23.09-13.19-40.84-22.58-58.5-30.59-21.81-9.89-41.86-16.79-61-20.62A166.05,166.05,0,0,0,1020.64,84c-29.84.87-59.73,6.29-91.89,16-25,7.55-47.67,16.23-84.92,31.82l-14.36,6c-5.7,2.39-10,4.2-14.24,5.94-10.69,4.42-19.64,8-28.17,11.28-20.72,7.93-38.5,13.7-55.45,17.77a118.81,118.81,0,0,1-14.94,2.6c-18.73,2-38-.38-59.43-7.1-19-5.95-39.53-15.17-65.84-29.11-10.6-5.61-21.83-11.82-37.28-20.53-.74-.42-31.68-17.93-41.24-23.29-36.22-20.3-65.67-35.89-97.48-51.18q-16.76-8.06-33.68-15.6Q204-50.55,13.8,192.75Z"/><path class="cls-4" d="M21,197Q210.83-45.79,387.79,33.16q16.94,7.55,33.65,15.59C453.23,64,482.66,79.61,518.87,99.89c9.56,5.36,40.49,22.87,41.24,23.29,15.46,8.72,26.7,14.92,37.31,20.54,26.35,14,47,23.2,66,29.17,21.53,6.75,40.94,9.18,59.8,7.13a119.73,119.73,0,0,0,15.06-2.62c17-4.08,34.82-9.86,55.57-17.81,8.54-3.27,17.49-6.86,28.19-11.29,4.21-1.74,8.54-3.55,14.24-5.94l14.36-6c37.22-15.58,59.86-24.26,84.83-31.79,32.08-9.68,61.9-15.1,91.65-16A165.14,165.14,0,0,1,1064.37,92c19.09,3.82,39.07,10.7,60.82,20.56,17.63,8,35.36,17.37,58.43,30.55,6,3.44,31.2,18,37.6,21.68,13.93,7.93,24.64,13.69,34.48,18.43,24.19,11.63,42.18,16.41,56.53,14l-.15-.91c-14.11,2.41-31.94-2.32-56-13.88-9.82-4.72-20.51-10.47-34.43-18.4-6.4-3.64-31.57-18.24-37.6-21.68-23.09-13.19-40.84-22.58-58.5-30.59-21.81-9.89-41.86-16.79-61-20.62a166.05,166.05,0,0,0-37.47-3.41c-29.84.87-59.73,6.29-91.89,16-25,7.55-47.67,16.23-84.92,31.82l-14.36,6c-5.7,2.39-10,4.2-14.24,5.94-10.69,4.42-19.64,8-28.17,11.28-20.72,7.93-38.5,13.7-55.45,17.77a118.81,118.81,0,0,1-14.94,2.6c-18.73,2-38-.38-59.43-7.1-19-5.95-39.53-15.17-65.84-29.11-10.6-5.61-21.83-11.82-37.28-20.53-.74-.42-31.68-17.93-41.24-23.29-36.22-20.3-65.67-35.89-97.48-51.18q-16.76-8.06-33.68-15.6Q210.48-46.87,20.24,196.43Z"/><path class="cls-5" d="M30.16,198.84Q220-44,397,35q16.94,7.55,33.65,15.59c31.79,15.28,61.22,30.86,97.43,51.15,9.56,5.36,40.49,22.87,41.24,23.29,15.46,8.72,26.7,14.92,37.31,20.54,26.35,14,47,23.2,66,29.17,21.53,6.75,40.94,9.18,59.8,7.13a119.73,119.73,0,0,0,15.06-2.62c17-4.08,34.82-9.86,55.57-17.81,8.54-3.27,17.49-6.86,28.19-11.29,4.21-1.74,8.54-3.55,14.24-5.94l14.36-6c37.22-15.58,59.86-24.26,84.83-31.79,32.08-9.68,61.9-15.1,91.65-16a165.14,165.14,0,0,1,37.26,3.39c19.09,3.82,39.07,10.7,60.82,20.56,17.63,8,35.36,17.37,58.43,30.55,6,3.44,31.2,18,37.6,21.68,13.93,7.93,24.64,13.69,34.48,18.43,24.19,11.63,42.18,16.41,56.53,14l-.15-.91c-14.11,2.41-31.94-2.32-56-13.88-9.82-4.72-20.51-10.47-34.43-18.4-6.4-3.64-31.57-18.24-37.6-21.68-23.09-13.19-40.84-22.58-58.5-30.59-21.81-9.89-41.86-16.79-61-20.62a166.05,166.05,0,0,0-37.47-3.41c-29.84.87-59.73,6.29-91.89,16-25,7.55-47.67,16.23-84.92,31.82l-14.36,6c-5.7,2.39-10,4.2-14.24,5.94-10.69,4.42-19.64,8-28.17,11.28-20.72,7.93-38.5,13.7-55.45,17.77a118.81,118.81,0,0,1-14.94,2.6c-18.73,2-38-.38-59.43-7.1-19-5.95-39.53-15.17-65.84-29.11-10.6-5.61-21.83-11.82-37.28-20.53-.74-.42-31.68-17.93-41.24-23.29C492.29,80.63,462.85,65,431,49.75q-16.76-8.06-33.68-15.6Q219.68-45,29.44,198.27Z"/><path class="cls-6" d="M36.6,203.44Q226.46-39.35,403.43,39.6q16.94,7.55,33.65,15.59C468.87,70.46,498.3,86,534.51,106.33c9.56,5.36,40.49,22.87,41.24,23.29,15.46,8.72,26.7,14.92,37.31,20.54,26.35,14,47,23.2,66,29.17,21.53,6.75,40.94,9.18,59.8,7.13a119.73,119.73,0,0,0,15.06-2.62c17-4.08,34.82-9.86,55.57-17.81,8.54-3.27,17.49-6.86,28.19-11.29,4.21-1.74,8.54-3.55,14.24-5.94l14.36-6c37.22-15.58,59.86-24.26,84.83-31.79,32.08-9.68,61.9-15.1,91.65-16A165.14,165.14,0,0,1,1080,98.43c19.09,3.82,39.07,10.7,60.82,20.56,17.63,8,35.36,17.37,58.43,30.55,6,3.44,31.2,18,37.6,21.68,13.93,7.93,24.64,13.69,34.48,18.43,24.19,11.63,42.18,16.41,56.53,14l-.15-.91c-14.11,2.41-31.94-2.32-56-13.88-9.82-4.72-20.51-10.47-34.43-18.4-6.4-3.64-31.57-18.24-37.6-21.68-23.09-13.19-40.84-22.58-58.5-30.59-21.81-9.89-41.86-16.79-61-20.62a166.05,166.05,0,0,0-37.47-3.41c-29.84.87-59.73,6.29-91.89,16-25,7.55-47.67,16.23-84.92,31.82l-14.36,6c-5.7,2.39-10,4.2-14.24,5.94-10.69,4.42-19.64,8-28.17,11.28-20.72,7.93-38.5,13.7-55.45,17.77a118.81,118.81,0,0,1-14.94,2.6c-18.73,2-38-.38-59.43-7.1-19-5.95-39.53-15.17-65.84-29.11-10.6-5.61-21.83-11.82-37.28-20.53-.74-.42-31.68-17.93-41.24-23.29-36.22-20.3-65.67-35.89-97.48-51.18q-16.76-8.06-33.68-15.6Q226.12-40.43,35.88,202.87Z"/><path class="cls-7" d="M44,208Q233.82-34.75,410.79,44.2q16.94,7.55,33.65,15.59c31.79,15.28,61.22,30.86,97.43,51.15,9.56,5.36,40.49,22.87,41.24,23.29,15.46,8.72,26.7,14.92,37.31,20.54,26.35,14,47,23.2,66,29.17,21.53,6.75,40.94,9.18,59.8,7.13a119.73,119.73,0,0,0,15.06-2.62c17-4.08,34.82-9.86,55.57-17.81,8.54-3.27,17.49-6.86,28.19-11.29,4.21-1.74,8.54-3.55,14.24-5.94l14.36-6c37.22-15.58,59.86-24.26,84.83-31.79,32.08-9.68,61.9-15.1,91.65-16a165.14,165.14,0,0,1,37.26,3.39c19.09,3.82,39.07,10.7,60.82,20.56,17.63,8,35.36,17.37,58.43,30.55,6,3.44,31.2,18,37.6,21.68,13.93,7.93,24.64,13.69,34.48,18.43,24.19,11.63,42.18,16.41,56.53,14l-.15-.91c-14.11,2.41-31.94-2.32-56-13.88-9.82-4.72-20.51-10.47-34.43-18.4-6.4-3.64-31.57-18.24-37.6-21.68-23.09-13.19-40.84-22.58-58.5-30.59-21.81-9.89-41.86-16.79-61-20.62a166.05,166.05,0,0,0-37.47-3.41c-29.84.87-59.73,6.29-91.89,16-25,7.55-47.67,16.23-84.92,31.82l-14.36,6c-5.7,2.39-10,4.2-14.24,5.94-10.69,4.42-19.64,8-28.17,11.28-20.72,7.93-38.5,13.7-55.45,17.77a118.81,118.81,0,0,1-14.94,2.6c-18.73,2-38-.38-59.43-7.1-19-5.95-39.53-15.17-65.84-29.11-10.6-5.61-21.83-11.82-37.28-20.53-.74-.42-31.68-17.93-41.24-23.29C506.09,89.83,476.65,74.24,444.84,59q-16.76-8.06-33.68-15.6Q233.48-35.83,43.24,207.47Z"/><path class="cls-8" d="M51.32,212.63Q241.18-30.15,418.14,48.79q16.94,7.55,33.65,15.59c31.79,15.28,61.22,30.86,97.43,51.15,9.56,5.36,40.49,22.87,41.24,23.29,15.46,8.72,26.7,14.92,37.31,20.54,26.35,14,47,23.2,66,29.17,21.53,6.75,40.94,9.18,59.8,7.13A119.73,119.73,0,0,0,768.63,193c17-4.08,34.82-9.86,55.57-17.81,8.54-3.27,17.49-6.86,28.19-11.29,4.21-1.74,8.54-3.55,14.24-5.94L881,152c37.22-15.58,59.86-24.26,84.83-31.79,32.08-9.68,61.9-15.1,91.65-16a165.14,165.14,0,0,1,37.26,3.39c19.09,3.82,39.07,10.7,60.82,20.56,17.63,8,35.36,17.37,58.43,30.55,6,3.44,31.2,18,37.6,21.68,13.93,7.93,24.64,13.69,34.48,18.43,24.19,11.63,42.18,16.41,56.53,14l-.15-.91c-14.11,2.41-31.94-2.32-56-13.88-9.82-4.72-20.51-10.47-34.43-18.4-6.4-3.64-31.57-18.24-37.6-21.68-23.09-13.19-40.84-22.58-58.5-30.59-21.81-9.89-41.86-16.79-61-20.62a166.05,166.05,0,0,0-37.47-3.41c-29.84.87-59.73,6.29-91.89,16-25,7.55-47.67,16.23-84.92,31.82l-14.36,6c-5.7,2.39-10,4.2-14.24,5.94-10.69,4.42-19.64,8-28.17,11.28-20.72,7.93-38.5,13.7-55.45,17.77a118.81,118.81,0,0,1-14.94,2.6c-18.73,2-38-.38-59.43-7.1-19-5.95-39.53-15.17-65.84-29.11-10.6-5.61-21.83-11.82-37.28-20.53-.74-.42-31.68-17.93-41.24-23.29C513.45,94.43,484,78.84,452.2,63.55Q435.43,55.5,418.52,48,240.84-31.23,50.6,212.07Z"/><path class="cls-9" d="M57.76,216.31Q247.62-26.47,424.58,52.47,441.52,60,458.24,68.06c31.79,15.28,61.22,30.86,97.43,51.15,9.56,5.36,40.49,22.87,41.24,23.29,15.46,8.72,26.7,14.92,37.31,20.54,26.35,14,47,23.2,66,29.17,21.53,6.75,40.94,9.18,59.8,7.13a119.73,119.73,0,0,0,15.06-2.62c17-4.08,34.82-9.86,55.57-17.81,8.54-3.27,17.49-6.86,28.19-11.29,4.21-1.74,8.54-3.55,14.24-5.94l14.36-6c37.22-15.58,59.86-24.26,84.83-31.79,32.08-9.68,61.9-15.1,91.65-16a165.14,165.14,0,0,1,37.26,3.39c19.09,3.82,39.07,10.7,60.82,20.56,17.63,8,35.36,17.37,58.43,30.55,6,3.44,31.2,18,37.6,21.68,13.93,7.93,24.64,13.69,34.48,18.43,24.19,11.63,42.18,16.41,56.53,14l-.15-.91c-14.11,2.41-31.94-2.32-56-13.88-9.82-4.72-20.51-10.47-34.43-18.4-6.4-3.64-31.57-18.24-37.6-21.68C1197.78,148.43,1180,139,1162.37,131c-21.81-9.89-41.86-16.79-61-20.62a166.05,166.05,0,0,0-37.47-3.41c-29.84.87-59.73,6.29-91.89,16-25,7.55-47.67,16.23-84.92,31.82l-14.36,6c-5.7,2.39-10,4.2-14.24,5.94-10.69,4.42-19.64,8-28.17,11.28-20.72,7.93-38.5,13.7-55.45,17.77a118.81,118.81,0,0,1-14.94,2.6c-18.73,2-38-.38-59.43-7.1-19-5.95-39.53-15.17-65.84-29.11-10.6-5.61-21.83-11.82-37.28-20.53-.74-.42-31.68-17.93-41.24-23.29-36.22-20.3-65.67-35.89-97.48-51.18Q441.87,59.18,425,51.63,247.28-27.55,57,215.75Z"/><path class="cls-10" d="M65.12,220Q255-22.79,431.94,56.15q16.94,7.55,33.65,15.59C497.39,87,526.82,102.6,563,122.89c9.56,5.36,40.49,22.87,41.24,23.29,15.46,8.72,26.7,14.92,37.31,20.54,26.35,14,47,23.2,66,29.17,21.53,6.75,40.94,9.18,59.8,7.13a119.73,119.73,0,0,0,15.06-2.62c17-4.08,34.82-9.86,55.57-17.81,8.54-3.27,17.49-6.86,28.19-11.29,4.21-1.74,8.54-3.55,14.24-5.94l14.36-6c37.22-15.58,59.86-24.26,84.83-31.79,32.08-9.68,61.9-15.1,91.65-16a165.14,165.14,0,0,1,37.26,3.39c19.09,3.82,39.07,10.7,60.82,20.56,17.63,8,35.36,17.37,58.43,30.55,6,3.44,31.2,18,37.6,21.68,13.93,7.93,24.64,13.69,34.48,18.43,24.19,11.63,42.18,16.41,56.53,14l-.15-.91c-14.11,2.41-31.94-2.32-56-13.88-9.82-4.72-20.51-10.47-34.43-18.4-6.4-3.64-31.57-18.24-37.6-21.68-23.09-13.19-40.84-22.58-58.5-30.59-21.81-9.89-41.86-16.79-61-20.62a166.05,166.05,0,0,0-37.47-3.41c-29.84.87-59.73,6.29-91.89,16-25,7.55-47.67,16.23-84.92,31.82l-14.36,6c-5.7,2.39-10,4.2-14.24,5.94-10.69,4.42-19.64,8-28.17,11.28-20.72,7.93-38.5,13.7-55.45,17.77a118.81,118.81,0,0,1-14.94,2.6c-18.73,2-38-.38-59.43-7.1-19-5.95-39.53-15.17-65.84-29.11-10.6-5.61-21.83-11.82-37.28-20.53C604,145,573,127.45,563.47,122.09,527.25,101.79,497.8,86.2,466,70.91q-16.76-8.06-33.68-15.6Q254.64-23.87,64.39,219.43Z"/><path class="cls-11" d="M71.56,225.51Q261.42-17.27,438.38,61.67,455.32,69.22,472,77.26c31.79,15.28,61.22,30.86,97.43,51.15C579,133.77,610,151.28,610.7,151.7c15.46,8.72,26.7,14.92,37.31,20.54,26.35,14,47,23.2,66,29.17,21.53,6.75,40.94,9.18,59.8,7.13a119.73,119.73,0,0,0,15.06-2.62c17-4.08,34.82-9.86,55.57-17.81,8.54-3.27,17.49-6.86,28.19-11.29,4.21-1.74,8.54-3.55,14.24-5.94l14.36-6c37.22-15.58,59.86-24.26,84.83-31.79,32.08-9.68,61.9-15.1,91.65-16a165.14,165.14,0,0,1,37.26,3.39c19.09,3.82,39.07,10.7,60.82,20.56,17.63,8,35.36,17.37,58.43,30.55,6,3.44,31.2,18,37.6,21.68,13.93,7.93,24.64,13.69,34.48,18.43,24.19,11.63,42.18,16.41,56.53,14l-.15-.91c-14.11,2.41-31.94-2.32-56-13.88-9.82-4.72-20.51-10.47-34.43-18.4-6.4-3.64-31.57-18.24-37.6-21.68-23.09-13.19-40.84-22.58-58.5-30.59-21.81-9.89-41.86-16.79-61-20.62a166.05,166.05,0,0,0-37.47-3.41c-29.84.87-59.73,6.29-91.89,16-25,7.55-47.67,16.23-84.92,31.82l-14.36,6c-5.7,2.39-10,4.2-14.24,5.94-10.69,4.42-19.64,8-28.17,11.28-20.72,7.93-38.5,13.7-55.45,17.77a118.81,118.81,0,0,1-14.94,2.6c-18.73,2-38-.38-59.43-7.1-19-5.95-39.53-15.17-65.84-29.11-10.6-5.61-21.83-11.82-37.28-20.53-.74-.42-31.68-17.93-41.24-23.29-36.22-20.3-65.67-35.89-97.48-51.18q-16.76-8.06-33.68-15.6Q261.08-18.35,70.83,224.95Z"/><path class="cls-12" d="M78.92,228.27Q268.78-14.51,445.74,64.43,462.68,72,479.4,80c31.79,15.28,61.22,30.86,97.43,51.15,9.56,5.36,40.49,22.87,41.24,23.29,15.46,8.72,26.7,14.92,37.31,20.54,26.35,14,47,23.2,66,29.17,21.53,6.75,40.94,9.18,59.8,7.13a119.73,119.73,0,0,0,15.06-2.62c17-4.08,34.82-9.86,55.57-17.81,8.54-3.27,17.49-6.86,28.19-11.29,4.21-1.74,8.54-3.55,14.24-5.94l14.36-6c37.22-15.58,59.86-24.26,84.83-31.79,32.08-9.68,61.9-15.1,91.65-16a165.14,165.14,0,0,1,37.26,3.39c19.09,3.82,39.07,10.7,60.82,20.56,17.63,8,35.36,17.37,58.43,30.55,6,3.44,31.2,18,37.6,21.68,13.93,7.93,24.64,13.69,34.48,18.43,24.19,11.63,42.18,16.41,56.53,14l-.15-.91c-14.11,2.41-31.94-2.32-56-13.88-9.82-4.72-20.51-10.47-34.43-18.4-6.4-3.64-31.57-18.24-37.6-21.68-23.09-13.19-40.84-22.58-58.5-30.59-21.81-9.89-41.86-16.79-61-20.62A166.05,166.05,0,0,0,1085,119c-29.84.87-59.73,6.29-91.89,16-25,7.55-47.67,16.23-84.92,31.82l-14.36,6c-5.7,2.39-10,4.2-14.24,5.94-10.69,4.42-19.64,8-28.17,11.28C830.75,198,813,203.72,796,207.79a118.81,118.81,0,0,1-14.94,2.6c-18.73,2-38-.38-59.43-7.1-19-5.95-39.53-15.17-65.84-29.11-10.6-5.61-21.83-11.82-37.28-20.53-.74-.42-31.68-17.93-41.24-23.29C541,110.07,511.6,94.48,479.79,79.19Q463,71.14,446.12,63.59,268.43-15.59,78.19,227.71Z"/><path class="cls-13" d="M87.2,231Q277.06-11.75,454,67.19,471,74.74,487.68,82.78c31.79,15.28,61.22,30.86,97.43,51.15,9.56,5.36,40.49,22.87,41.24,23.29,15.46,8.72,26.7,14.92,37.31,20.54,26.35,14,47,23.2,66,29.17,21.53,6.75,40.94,9.18,59.8,7.13a119.73,119.73,0,0,0,15.06-2.62c17-4.08,34.82-9.86,55.57-17.81,8.54-3.27,17.49-6.86,28.19-11.29,4.21-1.74,8.54-3.55,14.24-5.94l14.36-6c37.22-15.58,59.86-24.26,84.83-31.79,32.08-9.68,61.9-15.1,91.65-16A165.14,165.14,0,0,1,1130.6,126c19.09,3.82,39.07,10.7,60.82,20.56,17.63,8,35.36,17.37,58.43,30.55,6,3.44,31.2,18,37.6,21.68,13.93,7.93,24.64,13.69,34.48,18.43,24.19,11.63,42.18,16.41,56.53,14l-.15-.91c-14.11,2.41-31.94-2.32-56-13.88-9.82-4.72-20.51-10.47-34.43-18.4-6.4-3.64-31.57-18.24-37.6-21.68-23.09-13.19-40.84-22.58-58.5-30.59-21.81-9.89-41.86-16.79-61-20.62a166.05,166.05,0,0,0-37.47-3.41c-29.84.87-59.73,6.29-91.89,16-25,7.55-47.67,16.23-84.92,31.82l-14.36,6c-5.7,2.39-10,4.2-14.24,5.94-10.69,4.42-19.64,8-28.17,11.28-20.72,7.93-38.5,13.7-55.45,17.77a118.81,118.81,0,0,1-14.94,2.6c-18.73,2-38-.38-59.43-7.1-19-5.95-39.53-15.17-65.84-29.11-10.6-5.61-21.83-11.82-37.28-20.53-.74-.42-31.68-17.93-41.24-23.29-36.22-20.3-65.67-35.89-97.48-51.18q-16.76-8.06-33.68-15.6Q276.71-12.83,86.47,230.47Z"/><path class="cls-14" d="M94.56,235.63Q284.42-7.15,461.38,71.79,478.32,79.34,495,87.38c31.79,15.28,61.22,30.86,97.43,51.15C602,143.89,633,161.4,633.7,161.82c15.46,8.72,26.7,14.92,37.31,20.54,26.35,14,47,23.2,66,29.17,21.53,6.75,40.94,9.18,59.8,7.13A119.73,119.73,0,0,0,811.86,216c17-4.08,34.82-9.86,55.57-17.81C876,195,884.92,191.38,895.62,187c4.21-1.74,8.54-3.55,14.24-5.94l14.36-6c37.22-15.58,59.86-24.26,84.83-31.79,32.08-9.68,61.9-15.1,91.65-16a165.14,165.14,0,0,1,37.26,3.39c19.09,3.82,39.07,10.7,60.82,20.56,17.63,8,35.36,17.37,58.43,30.55,6,3.44,31.2,18,37.6,21.68,13.93,7.93,24.64,13.69,34.48,18.43,24.19,11.63,42.18,16.41,56.53,14l-.15-.91c-14.11,2.41-31.94-2.32-56-13.88-9.82-4.72-20.51-10.47-34.43-18.4-6.4-3.64-31.57-18.24-37.6-21.68-23.09-13.19-40.84-22.58-58.5-30.59-21.81-9.89-41.86-16.79-61-20.62a166.05,166.05,0,0,0-37.47-3.41c-29.84.87-59.73,6.29-91.89,16-25,7.55-47.67,16.23-84.92,31.82l-14.36,6c-5.7,2.39-10,4.2-14.24,5.94-10.69,4.42-19.64,8-28.17,11.28-20.72,7.93-38.5,13.7-55.45,17.77a118.81,118.81,0,0,1-14.94,2.6c-18.73,2-38-.38-59.43-7.1-19-5.95-39.53-15.17-65.84-29.11-10.6-5.61-21.83-11.82-37.28-20.53-.74-.42-31.68-17.93-41.24-23.29-36.22-20.3-65.67-35.89-97.48-51.18Q478.67,78.5,461.75,71,284.07-8.23,93.83,235.07Z"/><path class="cls-15" d="M101,240.23Q290.86-2.55,467.82,76.39,484.76,83.94,501.47,92c31.79,15.28,61.22,30.86,97.43,51.15,9.56,5.36,40.49,22.87,41.24,23.29,15.46,8.72,26.7,14.92,37.31,20.54,26.35,14,47,23.2,66,29.17,21.53,6.75,40.94,9.18,59.8,7.13a119.73,119.73,0,0,0,15.06-2.62c17-4.08,34.82-9.86,55.57-17.81,8.54-3.27,17.49-6.86,28.19-11.29,4.21-1.74,8.54-3.55,14.24-5.94l14.36-6c37.22-15.58,59.86-24.26,84.83-31.79,32.08-9.68,61.9-15.1,91.65-16a165.14,165.14,0,0,1,37.26,3.39c19.09,3.82,39.07,10.7,60.82,20.56,17.63,8,35.36,17.37,58.43,30.55,6,3.44,31.2,18,37.6,21.68,13.93,7.93,24.64,13.69,34.48,18.43,24.19,11.63,42.18,16.41,56.53,14l-.15-.91c-14.11,2.41-31.94-2.32-56-13.88-9.82-4.72-20.51-10.47-34.43-18.4-6.4-3.64-31.57-18.24-37.6-21.68C1241,172.35,1223.27,163,1205.61,155c-21.81-9.89-41.86-16.79-61-20.62a166.05,166.05,0,0,0-37.47-3.41c-29.84.87-59.73,6.29-91.89,16-25,7.55-47.67,16.23-84.92,31.82l-14.36,6c-5.7,2.39-10,4.2-14.24,5.94-10.69,4.42-19.64,8-28.17,11.28-20.72,7.93-38.5,13.7-55.45,17.77a118.81,118.81,0,0,1-14.94,2.6c-18.73,2-38-.38-59.43-7.1-19-5.95-39.53-15.17-65.84-29.11-10.6-5.61-21.83-11.82-37.28-20.53-.74-.42-31.68-17.93-41.24-23.29-36.22-20.3-65.67-35.89-97.48-51.18q-16.76-8.06-33.68-15.6Q290.51-3.63,100.27,239.67Z"/><path class="cls-16" d="M108.35,244.83Q298.22,2,475.18,81q16.94,7.55,33.65,15.59c31.79,15.28,61.22,30.86,97.43,51.15,9.56,5.36,40.49,22.87,41.24,23.29,15.46,8.72,26.7,14.92,37.31,20.54,26.35,14,47,23.2,66,29.17,21.53,6.75,40.94,9.18,59.8,7.13a119.73,119.73,0,0,0,15.06-2.62c17-4.08,34.82-9.86,55.57-17.81,8.54-3.27,17.49-6.86,28.19-11.29,4.21-1.74,8.54-3.55,14.24-5.94l14.36-6c37.22-15.58,59.86-24.26,84.83-31.79,32.08-9.68,61.9-15.1,91.65-16a165.14,165.14,0,0,1,37.26,3.39c19.09,3.82,39.07,10.7,60.82,20.56,17.63,8,35.36,17.37,58.43,30.55,6,3.44,31.2,18,37.6,21.68,13.93,7.93,24.64,13.69,34.48,18.43,24.19,11.63,42.18,16.41,56.53,14l-.15-.91c-14.11,2.41-31.94-2.32-56-13.88-9.82-4.72-20.51-10.47-34.43-18.4-6.4-3.64-31.57-18.24-37.6-21.68-23.09-13.19-40.84-22.58-58.5-30.59-21.81-9.89-41.86-16.79-61-20.62a166.05,166.05,0,0,0-37.47-3.41c-29.84.87-59.73,6.29-91.89,16-25,7.55-47.67,16.23-84.92,31.82l-14.36,6c-5.7,2.39-10,4.2-14.24,5.94-10.69,4.42-19.64,8-28.17,11.28-20.72,7.93-38.5,13.7-55.45,17.77a118.81,118.81,0,0,1-14.94,2.6c-18.73,2-38-.38-59.43-7.1-19-5.95-39.53-15.17-65.84-29.11-10.6-5.61-21.83-11.82-37.28-20.53-.74-.42-31.68-17.93-41.24-23.29C570.49,126.63,541,111,509.23,95.75q-16.76-8.06-33.68-15.6Q297.87,1,107.63,244.26Z"/><path class="cls-17" d="M114.79,248.51Q304.66,5.73,481.62,84.67q16.94,7.55,33.65,15.59c31.79,15.28,61.22,30.86,97.43,51.15,9.56,5.36,40.49,22.87,41.24,23.29,15.46,8.72,26.7,14.92,37.31,20.54,26.35,14,47,23.2,66,29.17,21.53,6.75,40.94,9.18,59.8,7.13a119.73,119.73,0,0,0,15.06-2.62c17-4.08,34.82-9.86,55.57-17.81,8.54-3.27,17.49-6.86,28.19-11.29,4.21-1.74,8.54-3.55,14.24-5.94l14.36-6c37.22-15.58,59.86-24.26,84.83-31.79,32.08-9.68,61.9-15.1,91.65-16a165.14,165.14,0,0,1,37.26,3.39c19.09,3.82,39.07,10.7,60.82,20.56,17.63,8,35.36,17.37,58.43,30.55,6,3.44,31.2,18,37.6,21.68,13.93,7.93,24.64,13.69,34.48,18.43,24.19,11.63,42.18,16.41,56.53,14l-.15-.91c-14.11,2.41-31.94-2.32-56-13.88-9.82-4.72-20.51-10.47-34.43-18.4-6.4-3.64-31.57-18.24-37.6-21.68-23.09-13.19-40.84-22.58-58.5-30.59-21.81-9.89-41.86-16.79-61-20.62a166.05,166.05,0,0,0-37.47-3.41c-29.84.87-59.73,6.29-91.89,16-25,7.55-47.67,16.23-84.92,31.82l-14.36,6c-5.7,2.39-10,4.2-14.24,5.94-10.69,4.42-19.64,8-28.17,11.28-20.72,7.93-38.5,13.7-55.45,17.77a118.81,118.81,0,0,1-14.94,2.6c-18.73,2-38-.38-59.43-7.1-19-5.95-39.53-15.17-65.84-29.11-10.6-5.61-21.83-11.82-37.28-20.53-.74-.42-31.68-17.93-41.24-23.29-36.22-20.3-65.67-35.89-97.48-51.18Q498.91,91.37,482,83.83,304.31,4.65,114.07,247.94Z"/><path class="cls-18" d="M122.15,251.27Q312,8.48,489,87.43,505.92,95,522.63,103c31.79,15.28,61.22,30.86,97.43,51.15,9.56,5.36,40.49,22.87,41.24,23.29,15.46,8.72,26.7,14.92,37.31,20.54,26.35,14,47,23.2,66,29.17,21.53,6.75,40.94,9.18,59.8,7.13a119.73,119.73,0,0,0,15.06-2.62c17-4.08,34.82-9.86,55.57-17.81,8.54-3.27,17.49-6.86,28.19-11.29,4.21-1.74,8.54-3.55,14.24-5.94l14.36-6c37.22-15.58,59.86-24.26,84.83-31.79,32.08-9.68,61.9-15.1,91.65-16a165.14,165.14,0,0,1,37.26,3.39c19.09,3.82,39.07,10.7,60.82,20.56,17.63,8,35.36,17.37,58.43,30.55,6,3.44,31.2,18,37.6,21.68,13.93,7.93,24.64,13.69,34.48,18.43,24.19,11.63,42.18,16.41,56.53,14l-.15-.91c-14.11,2.41-31.94-2.32-56-13.88-9.82-4.72-20.51-10.47-34.43-18.4-6.4-3.64-31.57-18.24-37.6-21.68-23.09-13.19-40.84-22.58-58.5-30.59-21.81-9.89-41.86-16.79-61-20.62a166.05,166.05,0,0,0-37.47-3.41c-29.84.87-59.73,6.29-91.89,16-25,7.55-47.67,16.23-84.92,31.82l-14.36,6c-5.7,2.39-10,4.2-14.24,5.94-10.69,4.42-19.64,8-28.17,11.28-20.72,7.93-38.5,13.7-55.45,17.77a118.81,118.81,0,0,1-14.94,2.6c-18.73,2-38-.38-59.43-7.1-19-5.95-39.53-15.17-65.84-29.11-10.6-5.61-21.83-11.82-37.28-20.53-.74-.42-31.68-17.93-41.24-23.29-36.22-20.3-65.67-35.89-97.48-51.18q-16.76-8.06-33.68-15.6Q311.67,7.41,121.43,250.7Z"/><path class="cls-19" d="M129.51,255.87Q319.38,13.08,496.34,92q16.94,7.55,33.65,15.59c31.79,15.28,61.22,30.86,97.43,51.15,9.56,5.36,40.49,22.87,41.24,23.29,15.46,8.72,26.7,14.92,37.31,20.54,26.35,14,47,23.2,66,29.17,21.53,6.75,40.94,9.18,59.8,7.13a119.73,119.73,0,0,0,15.06-2.62c17-4.08,34.82-9.86,55.57-17.81,8.54-3.27,17.49-6.86,28.19-11.29,4.21-1.74,8.54-3.55,14.24-5.94l14.36-6C996.4,179.64,1019,171,1044,163.43c32.08-9.68,61.9-15.1,91.65-16a165.14,165.14,0,0,1,37.26,3.39c19.09,3.82,39.07,10.7,60.82,20.56,17.63,8,35.36,17.37,58.43,30.55,6,3.44,31.2,18,37.6,21.68,13.93,7.93,24.64,13.69,34.48,18.43,24.19,11.63,42.18,16.41,56.53,14l-.15-.91c-14.11,2.41-31.94-2.32-56-13.88-9.82-4.72-20.51-10.47-34.43-18.4-6.4-3.64-31.57-18.24-37.6-21.68-23.09-13.19-40.84-22.58-58.5-30.59-21.81-9.89-41.86-16.79-61-20.62a166.05,166.05,0,0,0-37.47-3.41c-29.84.87-59.73,6.29-91.89,16-25,7.55-47.67,16.23-84.92,31.82l-14.36,6c-5.7,2.39-10,4.2-14.24,5.94-10.69,4.42-19.64,8-28.17,11.28-20.72,7.93-38.5,13.7-55.45,17.77a118.81,118.81,0,0,1-14.94,2.6c-18.73,2-38-.38-59.43-7.1-19-5.95-39.53-15.17-65.84-29.11-10.6-5.61-21.83-11.82-37.28-20.53-.74-.42-31.68-17.93-41.24-23.29-36.22-20.3-65.67-35.89-97.48-51.18q-16.76-8.06-33.68-15.6Q319,12,128.79,255.3Z"/><path class="cls-20" d="M136,259.55Q325.82,16.76,502.78,95.71q16.94,7.55,33.65,15.59c31.79,15.28,61.22,30.86,97.43,51.15,9.56,5.36,40.49,22.87,41.24,23.29,15.46,8.72,26.7,14.92,37.31,20.54,26.35,14,47,23.2,66,29.17,21.53,6.75,40.94,9.18,59.8,7.13A119.73,119.73,0,0,0,853.26,240c17-4.08,34.82-9.86,55.57-17.81,8.54-3.27,17.49-6.86,28.19-11.29,4.21-1.74,8.54-3.55,14.24-5.94l14.36-6c37.22-15.58,59.86-24.26,84.83-31.79,32.08-9.68,61.9-15.1,91.65-16a165.14,165.14,0,0,1,37.26,3.39c19.09,3.82,39.07,10.7,60.82,20.56,17.63,8,35.36,17.37,58.43,30.55,6,3.44,31.2,18,37.6,21.68,13.93,7.93,24.64,13.69,34.48,18.43,24.19,11.63,42.18,16.41,56.53,14l-.15-.91c-14.11,2.41-31.94-2.32-56-13.88-9.82-4.72-20.51-10.47-34.43-18.4-6.4-3.64-31.57-18.24-37.6-21.68-23.09-13.19-40.84-22.58-58.5-30.59-21.81-9.89-41.86-16.79-61-20.62a166.05,166.05,0,0,0-37.47-3.41c-29.84.87-59.73,6.29-91.89,16-25,7.55-47.67,16.23-84.92,31.82l-14.36,6c-5.7,2.39-10,4.2-14.24,5.94C926,214.45,917,218,908.5,221.3,887.78,229.23,870,235,853,239.07a118.81,118.81,0,0,1-14.94,2.6c-18.73,2-38-.38-59.43-7.1-19-5.95-39.53-15.17-65.84-29.11-10.6-5.61-21.83-11.82-37.28-20.53-.74-.42-31.68-17.93-41.24-23.29-36.22-20.3-65.67-35.89-97.48-51.18q-16.76-8.06-33.68-15.6Q325.47,15.69,135.23,259Z"/></g></g></svg>